<svg width="42" height="41" viewBox="0 0 42 41" fill="none" xmlns="http://www.w3.org/2000/svg">
<rect x="0.442383" width="40.7212" height="40.7212" rx="20.3606" fill="#D8D8D8"/>
<path d="M20.8036 17.5841C20.0672 17.5841 19.361 17.8767 18.8403 18.3973C18.3197 18.918 18.0271 19.6242 18.0271 20.3606C18.0271 21.0969 18.3197 21.8031 18.8403 22.3238C19.361 22.8445 20.0672 23.137 20.8036 23.137C21.5399 23.137 22.2461 22.8445 22.7668 22.3238C23.2875 21.8031 23.58 21.0969 23.58 20.3606C23.58 19.6242 23.2875 18.918 22.7668 18.3973C22.2461 17.8767 21.5399 17.5841 20.8036 17.5841ZM20.8036 15.7332C22.0308 15.7332 23.2078 16.2207 24.0757 17.0885C24.9435 17.9563 25.431 19.1333 25.431 20.3606C25.431 21.5878 24.9435 22.7648 24.0757 23.6326C23.2078 24.5005 22.0308 24.988 20.8036 24.988C19.5763 24.988 18.3993 24.5005 17.5315 23.6326C16.6637 22.7648 16.1762 21.5878 16.1762 20.3606C16.1762 19.1333 16.6637 17.9563 17.5315 17.0885C18.3993 16.2207 19.5763 15.7332 20.8036 15.7332ZM26.8192 15.5018C26.8192 15.8086 26.6973 16.1029 26.4804 16.3198C26.2634 16.5368 25.9692 16.6587 25.6624 16.6587C25.3555 16.6587 25.0613 16.5368 24.8443 16.3198C24.6274 16.1029 24.5055 15.8086 24.5055 15.5018C24.5055 15.195 24.6274 14.9007 24.8443 14.6838C25.0613 14.4668 25.3555 14.345 25.6624 14.345C25.9692 14.345 26.2634 14.4668 26.4804 14.6838C26.6973 14.9007 26.8192 15.195 26.8192 15.5018ZM20.8036 12.9567C18.5139 12.9567 18.1401 12.9632 17.0748 13.0104C16.3492 13.0447 15.8624 13.1418 15.4108 13.3177C15.0329 13.4564 14.6912 13.6789 14.4113 13.9683C14.1216 14.2482 13.8989 14.5898 13.7598 14.9678C13.5839 15.4213 13.4867 15.9072 13.4534 16.6318C13.4053 17.6536 13.3988 18.0108 13.3988 20.3606C13.3988 22.6511 13.4053 23.0241 13.4525 24.0893C13.4867 24.814 13.5839 25.3017 13.7588 25.7524C13.9162 26.155 14.1013 26.4447 14.4085 26.752C14.7204 27.0629 15.0101 27.2489 15.408 27.4026C15.8652 27.5793 16.352 27.6774 17.0739 27.7107C18.0956 27.7589 18.4529 27.7644 20.8027 27.7644C23.0932 27.7644 23.4662 27.7579 24.5314 27.7107C25.2551 27.6765 25.742 27.5793 26.1945 27.4044C26.5721 27.265 26.9137 27.0426 27.194 26.7538C27.5059 26.4428 27.6919 26.1532 27.8456 25.7543C28.0214 25.2989 28.1195 24.8121 28.1528 24.0884C28.201 23.0676 28.2065 22.7095 28.2065 20.3606C28.2065 18.0709 28.2 17.697 28.1528 16.6318C28.1186 15.9081 28.0205 15.4194 27.8456 14.9678C27.7061 14.5902 27.4837 14.2487 27.195 13.9683C26.9152 13.6785 26.5735 13.4557 26.1954 13.3167C25.7419 13.1409 25.2551 13.0437 24.5314 13.0104C23.5106 12.9623 23.1534 12.9567 20.8027 12.9567M20.8027 11.1058C23.3172 11.1058 23.6309 11.115 24.6184 11.1613C25.6031 11.2076 26.275 11.3621 26.8646 11.5917C27.4754 11.8267 27.9899 12.1451 28.5045 12.6587C28.9751 13.1214 29.3393 13.681 29.5716 14.2987C29.8002 14.8882 29.9557 15.5601 30.0019 16.5457C30.0454 17.5323 30.0575 17.8461 30.0575 20.3606C30.0575 22.8751 30.0482 23.1889 30.0019 24.1754C29.9557 25.161 29.8002 25.832 29.5716 26.4225C29.3399 27.0405 28.9757 27.6002 28.5045 28.0624C28.0417 28.5329 27.4821 28.897 26.8646 29.1295C26.275 29.3581 25.6031 29.5136 24.6184 29.5599C23.6309 29.6034 23.3172 29.6154 20.8027 29.6154C18.2881 29.6154 17.9744 29.6061 16.9869 29.5599C16.0022 29.5136 15.3312 29.3581 14.7408 29.1295C14.1228 28.8977 13.5631 28.5335 13.1008 28.0624C12.6301 27.5998 12.266 27.0402 12.0337 26.4225C11.8042 25.8329 11.6497 25.161 11.6034 24.1754C11.559 23.1889 11.5479 22.8751 11.5479 20.3606C11.5479 17.8461 11.5571 17.5323 11.6034 16.5457C11.6497 15.5601 11.8042 14.8891 12.0337 14.2987C12.2653 13.6806 12.6296 13.1208 13.1008 12.6587C13.5632 12.1879 14.1229 11.8237 14.7408 11.5917C15.3303 11.3621 16.0013 11.2076 16.9869 11.1613C17.9753 11.1178 18.2891 11.1058 20.8036 11.1058" fill="black"/>
</svg>
