<svg width="41" height="41" viewBox="0 0 41 41" fill="none" xmlns="http://www.w3.org/2000/svg">
<rect width="40.7212" height="40.6471" rx="20.3236" fill="#D8D8D8"/>
<path d="M20.3603 11.1058C15.2701 11.1058 11.1055 15.2612 11.1055 20.3791C11.1055 25.0065 14.4927 28.8472 18.9165 29.5413V23.063H16.5658V20.3791H18.9165V18.3338C18.9165 16.0108 20.2955 14.7337 22.4148 14.7337C23.4236 14.7337 24.4787 14.9095 24.4787 14.9095V17.1954H23.3126C22.165 17.1954 21.804 17.9081 21.804 18.6392V20.3791H24.3769L23.9604 23.063H21.804V29.5413C23.9849 29.1969 25.9707 28.0842 27.4031 26.404C28.8355 24.7239 29.62 22.587 29.6151 20.3791C29.6151 15.2612 25.4504 11.1058 20.3603 11.1058Z" fill="black"/>
</svg>
