<svg width="42" height="41" viewBox="0 0 42 41" fill="none" xmlns="http://www.w3.org/2000/svg">
<rect x="0.720703" width="40.7212" height="40.7212" rx="20.3606" fill="#D8D8D8"/>
<path d="M30.3358 20.3606C30.3374 21.5796 30.0973 22.7868 29.6296 23.9125C29.1619 25.0382 28.4757 26.0601 27.6107 26.919C26.7528 27.7754 25.7346 28.4543 24.6142 28.917C23.4938 29.3796 22.2932 29.617 21.081 29.6154C15.9696 29.6154 11.8262 25.472 11.8262 20.3606C11.8229 17.9875 12.7345 15.7046 14.3713 13.9863C15.2349 13.075 16.2754 12.3495 17.4291 11.8542C18.5828 11.3589 19.8255 11.1042 21.081 11.1058C22.2932 11.1042 23.4938 11.3415 24.6142 11.8042C25.7346 12.2669 26.7528 12.9458 27.6107 13.8022C28.4757 14.6611 29.1619 15.683 29.6296 16.8087C30.0973 17.9344 30.3374 19.1416 30.3358 20.3606Z" stroke="black" stroke-width="2.22115" stroke-linecap="round" stroke-linejoin="round"/>
<path d="M30.3356 20.3602C28.9854 20.3602 25.2603 19.8512 21.9262 21.3148C18.3044 22.9053 15.682 25.3726 14.5391 26.9066" stroke="black" stroke-width="2.22115" stroke-linecap="round" stroke-linejoin="round"/>
<path d="M17.6104 11.7782C19.0587 13.1151 22.2192 16.5185 23.3946 19.8974C24.57 23.2764 25.0049 27.4309 25.2733 28.6132" stroke="black" stroke-width="2.22115" stroke-linecap="round" stroke-linejoin="round"/>
<path d="M11.8975 19.2038C13.6457 19.3094 18.2736 19.4042 21.2351 18.1395C24.1966 16.8749 26.745 14.5487 27.6191 13.8106M12.5203 23.8835C13.3358 25.8575 14.8066 27.4903 16.685 28.5068" stroke="black" stroke-width="2.22115" stroke-linecap="round" stroke-linejoin="round"/>
<path d="M11.8262 20.3606C11.8229 17.9875 12.7345 15.7046 14.3713 13.9863C15.2349 13.075 16.2754 12.3495 17.4291 11.8542C18.5828 11.3589 19.8255 11.1042 21.081 11.1058M24.7829 11.8758C25.8369 12.3369 26.7958 12.9902 27.6107 13.8022C28.4757 14.6611 29.1619 15.683 29.6296 16.8087C30.0973 17.9344 30.3374 19.1416 30.3358 20.3606C30.3358 21.4999 30.1299 22.5915 29.7527 23.5998M21.081 29.6154C22.2932 29.617 23.4938 29.3796 24.6142 28.917C25.7346 28.4543 26.7528 27.7754 27.6107 26.919" stroke="black" stroke-width="2.22115" stroke-linecap="round" stroke-linejoin="round"/>
</svg>
