<svg width="75" height="29" viewBox="0 0 75 29" fill="none" xmlns="http://www.w3.org/2000/svg">
<g clip-path="url(#clip0_109_164)">
<path d="M52.9543 7.82691C54.9886 7.82691 56.5606 8.37265 57.7628 9.46413C58.9649 10.5555 59.5196 12.0107 59.5196 13.8298V22.561H56.9305V20.5603H56.838C55.7284 22.1975 54.1564 23.0161 52.3069 23.0161C50.7349 23.0161 49.3478 22.5612 48.2382 21.6518C47.221 20.7423 46.5737 19.469 46.5737 18.1047C46.5737 16.6494 47.1287 15.467 48.2382 14.5575C49.3478 13.6479 50.9199 13.2842 52.7693 13.2842C54.4337 13.2842 55.7284 13.5571 56.7455 14.1937V13.5571C56.7455 12.7081 56.4233 11.8593 55.7789 11.3062L55.6358 11.1923C54.8961 10.5556 53.9714 10.1918 52.9543 10.1918C51.3822 10.1918 50.1802 10.8286 49.3478 12.1018L46.9437 10.6463C48.4231 8.73629 50.365 7.82691 52.9543 7.82691ZM39.9158 1.64209C41.5751 1.64209 43.1519 2.21001 44.4126 3.26908L44.6319 3.46099C45.9265 4.55247 46.5737 6.18969 46.5737 7.91775C46.5737 9.64581 45.9265 11.192 44.6319 12.3744C43.3372 13.5568 41.7653 14.1934 39.9158 14.1934L35.4773 14.1024V22.561H32.703V1.64209H39.9158ZM53.324 15.4668C52.2144 15.4668 51.2897 15.7396 50.55 16.2854C49.8102 16.7401 49.4403 17.3767 49.4403 18.1953C49.4403 18.923 49.8103 19.5595 50.365 19.9235C51.0124 20.3782 51.7521 20.651 52.4919 20.651C53.5275 20.651 54.5632 20.2548 55.3733 19.5365L55.5434 19.3777C56.4681 18.5592 56.9305 17.5587 56.9305 16.4672C56.0983 15.8306 54.8961 15.4667 53.3241 15.4667M40.101 4.18855H35.4774V11.4651H40.101C41.118 11.4651 42.1353 11.1013 42.7826 10.3738C44.262 9.00951 44.262 6.73571 42.8751 5.37129L42.7826 5.28031C42.0428 4.55275 41.118 4.09799 40.1008 4.18897M74.5 8.28167L65.3454 28.9278H62.5713L65.9926 21.7426L59.982 8.37265H62.9411L67.2872 18.6502H67.3797L71.6334 8.37265H74.5V8.28167Z" fill="#5F6368"/>
<path d="M24.4731 12.2833C24.4731 11.4647 24.3806 10.6462 24.2881 9.82764H12.7295V14.4662H19.2948C19.0175 15.9213 18.1853 17.2856 16.8907 18.1043V21.1057H20.8669C23.1787 19.0138 24.4732 15.9213 24.4732 12.2834" fill="#4285F4"/>
<path d="M12.7294 24.0161C16.0582 24.0161 18.8323 22.9246 20.8668 21.1056L16.8906 18.1042C15.7809 18.8318 14.3938 19.2865 12.7294 19.2865C9.58524 19.2865 6.81111 17.1947 5.8864 14.2842H1.81784V17.3765C3.94462 21.4694 8.10582 24.0161 12.7294 24.0161Z" fill="#34A853"/>
<path d="M5.88686 14.2841C5.33215 12.8289 5.33215 11.1918 5.88686 9.64556V6.55322H1.8183C0.061237 9.9185 0.061237 13.9204 1.8183 17.3765L5.88686 14.2841Z" fill="#FBBC04"/>
<path d="M12.7294 4.73444C14.4863 4.73444 16.1507 5.37116 17.4454 6.55348L20.9593 3.09736C18.7398 1.09636 15.7808 -0.0859565 12.8217 0.00488173C8.19816 0.00488173 3.94461 2.55162 1.91019 6.64446L5.97889 9.7368C6.8111 6.82628 9.58523 4.73444 12.7294 4.73444Z" fill="#EA4335"/>
</g>
<defs>
<clipPath id="clip0_109_164">
<rect width="74" height="29" fill="white" transform="translate(0.5)"/>
</clipPath>
</defs>
</svg>