<svg width="9" height="15" viewBox="0 0 9 15" fill="none" xmlns="http://www.w3.org/2000/svg">
<path fill-rule="evenodd" clip-rule="evenodd" d="M8.20701 6.79315C8.39448 6.98067 8.49979 7.23498 8.49979 7.50015C8.49979 7.76531 8.39448 8.01962 8.20701 8.20715L2.55001 13.8641C2.45776 13.9597 2.34742 14.0358 2.22541 14.0882C2.10341 14.1407 1.97219 14.1682 1.83941 14.1694C1.70663 14.1705 1.57495 14.1452 1.45205 14.095C1.32916 14.0447 1.2175 13.9704 1.12361 13.8765C1.02972 13.7826 0.955466 13.671 0.905185 13.5481C0.854904 13.4252 0.829603 13.2935 0.830757 13.1607C0.831911 13.028 0.859497 12.8967 0.911906 12.7747C0.964315 12.6527 1.0405 12.5424 1.13601 12.4501L6.08601 7.50015L1.13601 2.55014C0.953849 2.36154 0.853055 2.10894 0.855333 1.84674C0.857611 1.58455 0.96278 1.33373 1.14819 1.14833C1.3336 0.962919 1.58441 0.857749 1.84661 0.855471C2.1088 0.853192 2.36141 0.953986 2.55001 1.13614L8.20701 6.79315Z" fill="#333333"/>
</svg>