<svg xmlns="http://www.w3.org/2000/svg" viewBox="0 0 800 800" focusable="false" width="800" height="800" preserveAspectRatio="xMidYMid meet" style="width: 100%; height: 100%;"><defs><clipPath id="animationMask_IRIyulL5vU"><rect width="800" height="800" x="0" y="0"></rect></clipPath><clipPath id="cp_8F7RWDWD"><path d="M0,0 L500,0 L500,500 L0,500z"></path></clipPath><clipPath id="cp_2MNbe5Gs"><path d="M0,0 L800,0 L800,800 L0,800z"></path></clipPath><clipPath id="cp_rIoBYzMn"><path d="M0,0 L800,0 L800,800 L0,800z"></path></clipPath><clipPath id="cp_9PvqJSTO"><path d="M0,0 L800,0 L800,800 L0,800z"></path></clipPath><clipPath id="cp_B887Kz8H"><path d="M0,0 L800,0 L800,800 L0,800z"></path></clipPath><clipPath id="cp_v6BmoGJT"><path d="M0,0 L800,0 L800,800 L0,800z"></path></clipPath><clipPath id="cp_vebzPfb1"><path d="M0,0 L800,0 L800,800 L0,800z"></path></clipPath></defs><g clip-path="url(#animationMask_IRIyulL5vU)"><g clip-path="url(#cp_8F7RWDWD)" style="display: block;" transform="matrix(1.1,0,0,1.1,181,122)" opacity="1"><g style="user-select: none; display: none;" transform="matrix(1,0,0,1,165.205,78.746)" opacity="1"><g opacity="1" transform="matrix(1,0,0,1,72.966,187.818)"><path style="display: none;" fill="rgb(172,30,44)" fill-opacity="1" d="M0 0 M16.57900047302246,187.5679931640625 C16.57900047302246,187.5679931640625 72.23899841308594,187.5679931640625 72.23899841308594,187.5679931640625 C72.23899841308594,187.5679931640625 72.07099914550781,144.12100219726562 72.38999938964844,78.85700225830078 C72.71600341796875,11.800999641418457 72.25800323486328,-24.209999084472656 72.25800323486328,-24.209999084472656 C72.25800323486328,-24.209999084472656 59.93199920654297,-108.82499694824219 59.93199920654297,-108.82499694824219 C59.93199920654297,-108.82499694824219 50.71699905395508,-154.91900634765625 2.0399999618530273,-173.60000610351562 C-34.35499954223633,-187.5679931640625 -77.21700286865234,-172.89500427246094 -77.21700286865234,-172.89500427246094 C-77.21700286865234,-172.89500427246094 -72.71700286865234,187.5679931640625 -72.71700286865234,187.5679931640625 C-72.71700286865234,187.5679931640625 16.57900047302246,187.5679931640625 16.57900047302246,187.5679931640625z"></path></g></g><g clip-path="url(#cp_vebzPfb1)" style="display: none;" transform="matrix(1,0,0,1,-150,-150)" opacity="1"><g style="user-select: none; display: none;" transform="matrix(1,0,0,1,332.419,166.098)" opacity="1"><g opacity="1" transform="matrix(1,0,0,1,57.687,119.987)"><path style="display: none;" fill="rgb(224,121,113)" fill-opacity="1" d="M0 0 M-62.808998107910156,65.58799743652344 C-62.808998107910156,65.58799743652344 -63.79499816894531,55.91600036621094 -60.630001068115234,49.733001708984375 C-60.630001068115234,49.733001708984375 -56.709999084472656,42.79800033569336 -53.14400100708008,40.178001403808594 C-47.6609992980957,36.14899826049805 -44.4379997253418,34.05099868774414 -44.4379997253418,34.05099868774414 C-44.4379997253418,34.05099868774414 -41.474998474121094,31.926000595092773 -29.51799964904785,32.1150016784668 C-19.285999298095703,32.277000427246094 -11.961999893188477,36.44900131225586 -11.961999893188477,36.44900131225586 C-11.961999893188477,36.44900131225586 -6.7789998054504395,39.31800079345703 -5.138999938964844,48.23099899291992 C-3.7899999618530273,55.558998107910156 -4.021999835968018,57.95600128173828 -4.021999835968018,57.95600128173828 C-4.021999835968018,57.95600128173828 -3.0480000972747803,60.70100021362305 -3.565000057220459,67.63999938964844 C-4.10699987411499,74.91500091552734 -5.72599983215332,82.82499694824219 -5.72599983215332,82.82499694824219 C-5.72599983215332,82.82499694824219 -9.857000350952148,91.41600036621094 -22.888999938964844,95.8740005493164 C-22.888999938964844,95.8740005493164 -47.32500076293945,93.34300231933594 -47.32500076293945,93.34300231933594"></path></g></g></g><g clip-path="url(#cp_v6BmoGJT)" style="display: none;" transform="matrix(1,0,0,1,-170,-150)" opacity="1"><g style="user-select: none; display: none;" transform="matrix(1,0,0,1,402.954,226.72)" opacity="1"><g opacity="1" transform="matrix(1,0,0,1,79.929,98.964)"><path style="display: none;" fill="rgb(250,170,100)" fill-opacity="1" d="M0 0 M-96.85258483886719,81.66555786132812 C-96.54240417480469,79.5859603881836 -93.5754623413086,74.52522277832031 -87.8393325805664,71.22044372558594 C-81.4456558227539,67.53657531738281 -78.44081115722656,69.1646957397461 -73.1363754272461,68.38066101074219 C-68.10713958740234,67.63695526123047 -66.51234436035156,66.50355529785156 -65.13892364501953,64.80744934082031 C-62.108055114746094,61.06381607055664 -63.691349029541016,56.33278274536133 -60.04408264160156,50.87297821044922 C-57.812564849853516,47.53159713745117 -55.23253631591797,45.78281021118164 -53.169654846191406,44.660770416259766 C-51.9510612487793,44.13872528076172 -47.696067810058594,42.23893737792969 -41.89749526977539,43.544883728027344 C-41.02734375,43.7401123046875 -34.68013381958008,45.539947509765625 -31.49039649963379,51.512168884277344 C-28.39596176147461,57.30538558959961 -29.640254974365234,63.09954833984375 -30.121103286743164,64.31555938720703 C-33.036033630371094,71.67953491210938 -39.52994155883789,73.0591812133789 -40.579566955566406,73.40470886230469 C-43.27256774902344,74.65370178222656 -46.58102798461914,74.06922149658203 -50.78596496582031,78.55364227294922 C-52.888431549072266,80.79642486572266 -53.79779815673828,85.19739532470703 -54.04236602783203,87.43067169189453 C-54.707130432128906,93.51262664794922 -56.352909088134766,94.97106170654297 -58.86484909057617,97.01115417480469 C-61.94739532470703,99.51448059082031 -67.99476623535156,100.34196472167969 -71.7547836303711,100.22369384765625 C-74.18167877197266,100.1470947265625 -80.78119659423828,100.06900024414062 -85.17411804199219,101.13990783691406 C-92.42510986328125,102.92703247070312 -96.13008117675781,106.1257553100586 -98.27040100097656,108.88153076171875"></path></g></g></g><g clip-path="url(#cp_B887Kz8H)" style="display: none;" transform="matrix(1,0,0,1,-150,-150)" opacity="1"><g style="user-select: none; display: none;" transform="matrix(0.5901,0,0,0.7731,342.3284,444.8299)" opacity="1"><g opacity="1" transform="matrix(1,0,0,1,60.624,85.406)"><path style="display: none;" fill="rgb(224,121,113)" fill-opacity="1" d="M0 0 M-76.65699768066406,-52.18000030517578 C-76.65699768066406,-52.18000030517578 55.411251068115234,-86.9728775024414 55.411251068115234,-86.9728775024414 C55.411251068115234,-86.9728775024414 34.85649871826172,-49.30500030517578 34.85649871826172,-49.30500030517578 C34.85649871826172,-49.30500030517578 67.5458755493164,-27.690750122070312 67.5458755493164,-27.690750122070312 C67.5458755493164,-27.690750122070312 31.66699981689453,-0.4690000116825104 31.66699981689453,-0.4690000116825104 C31.66699981689453,-0.4690000116825104 68.21524810791016,26.388874053955078 68.21524810791016,26.388874053955078 C68.21524810791016,26.388874053955078 29.652000427246094,48.80550003051758 29.652000427246094,48.80550003051758 C29.652000427246094,48.80550003051758 63.601749420166016,88.59850311279297 63.601749420166016,88.59850311279297 C63.601749420166016,88.59850311279297 -78.8740005493164,62.183998107910156 -78.8740005493164,62.183998107910156"></path></g></g></g><g clip-path="url(#cp_9PvqJSTO)" style="display: none;" transform="matrix(1,0,0,1,-278.5821,-129.1733)" opacity="1"><g style="user-select: none; display: none;" transform="matrix(1,0,0,1,567.816,379.105)" opacity="1"><g opacity="1" transform="matrix(1,0,0,1,7.348,7.349)"><path style="display: none;" fill="rgb(224,121,113)" fill-opacity="1" d="M0 0 M7.098999977111816,0 C7.098999977111816,3.9189999103546143 3.9200000762939453,7.098999977111816 -0.0020000000949949026,7.098999977111816 C-3.9200000762939453,7.098999977111816 -7.098999977111816,3.9189999103546143 -7.098999977111816,0 C-7.098999977111816,-3.9210000038146973 -3.9200000762939453,-7.098999977111816 -0.0020000000949949026,-7.098999977111816 C3.9200000762939453,-7.098999977111816 7.098999977111816,-3.9210000038146973 7.098999977111816,0z"></path></g></g></g><g clip-path="url(#cp_rIoBYzMn)" style="display: none;" transform="matrix(1,0,0,1,-150,-124.8755)" opacity="1"><g style="user-select: none; display: none;" transform="matrix(1,0,0,1,279.391,158.262)" opacity="1"><g opacity="1" transform="matrix(1,0,0,1,21.037,27.367)"><path stroke-linecap="round" stroke-linejoin="round" fill-opacity="0" style="display: none;" stroke="rgb(250,170,100)" stroke-opacity="1" stroke-width="3.984" d="M0 0 M6.395999908447266,10.052000045776367 C9.133000373840332,14.35200023651123 11.07699966430664,17.406999588012695 11.07699966430664,17.406999588012695"></path></g></g><g style="user-select: none; display: none;" transform="matrix(1,0,0,1,279.449,158.063)" opacity="1"><g opacity="1" transform="matrix(1,0,0,1,21.298,27.892)"><path stroke-linecap="round" stroke-linejoin="round" fill-opacity="0" style="display: none;" stroke="rgb(250,170,100)" stroke-opacity="1" stroke-width="3.984" d="M0 0"></path></g></g><g style="user-select: none; display: none;" transform="matrix(1,0,0,1,273.076,170.806)" opacity="1"><g opacity="1" transform="matrix(1,0,0,1,27.671,15.149)"><path stroke-linecap="round" stroke-linejoin="round" fill-opacity="0" style="display: none;" stroke="rgb(250,170,100)" stroke-opacity="1" stroke-width="3.984" d="M0 0"></path></g></g></g><g clip-path="url(#cp_2MNbe5Gs)" style="display: none;" transform="matrix(1,0,0,1,-277,-150)" opacity="1"><g style="user-select: none; display: none;" transform="matrix(1,0,0,1,568.685,490.51)" opacity="1"><g opacity="1" transform="matrix(1,0,0,1,12.927,28.949)"><path stroke-linecap="round" stroke-linejoin="round" fill-opacity="0" style="display: none;" stroke="rgb(172,30,44)" stroke-opacity="1" stroke-width="3.984" d="M0 0"></path></g></g><g style="user-select: none; display: none;" transform="matrix(1,0,0,1,561.919,494.071)" opacity="1"><g opacity="1" transform="matrix(1,0,0,1,18.98,23.905)"><path stroke-linecap="round" stroke-linejoin="round" fill-opacity="0" style="display: none;" stroke="rgb(172,30,44)" stroke-opacity="1" stroke-width="3.984" d="M0 0"></path></g></g><g style="user-select: none; display: none;" transform="matrix(1,0,0,1,555.037,504.752)" opacity="1"><g opacity="1" transform="matrix(1,0,0,1,26.279,11.592)"><path stroke-linecap="round" stroke-linejoin="round" fill-opacity="0" style="display: none;" stroke="rgb(172,30,44)" stroke-opacity="1" stroke-width="3.984" d="M0 0"></path></g></g></g><g style="user-select: none; display: block;" transform="matrix(0.9659,0,0,1,60.7104,88.004)" opacity="1"><g opacity="1" transform="matrix(1,0,0,1,106.804,201.266)"><path style="display: block;" fill="rgb(247,224,201)" fill-opacity="1" d="M0 0 M-102.24199676513672,162.77200317382812 C-102.24199676513672,162.77200317382812 163.4739990234375,182.9080047607422 163.4739990234375,182.9080047607422 C163.4739990234375,182.9080047607422 165.4149932861328,88.96399688720703 164.11399841308594,23.66900062561035 C162.21099853515625,-71.87200164794922 173.10400390625,-207.88900756835938 34.50899887084961,-209.8679962158203 C-75.86399841308594,-211.44400024414062 -100.22599792480469,-122.0739974975586 -102.24199676513672,-56.20399856567383 C-103.8759994506836,-2.805999994277954 -102.24199676513672,162.77200317382812 -102.24199676513672,162.77200317382812z"></path></g></g><g style="user-select: none; display: block;" transform="matrix(1.05,0,0,1,274.1556,278.805)" opacity="1"><g opacity="1" transform="matrix(1,0,0,1,11.468,11.468)"><path style="display: block;" fill="rgb(250,170,100)" fill-opacity="1" d="M0 0 M11.218999862670898,-0.0010000000474974513 C11.218999862670898,6.196000099182129 6.195000171661377,11.217000007629395 -0.0010000000474974513,11.217000007629395 C-6.197000026702881,11.217000007629395 -11.218999862670898,6.196000099182129 -11.218999862670898,-0.0010000000474974513 C-11.218999862670898,-6.196000099182129 -6.197000026702881,-11.217000007629395 -0.0010000000474974513,-11.217000007629395 C6.195000171661377,-11.217000007629395 11.218999862670898,-6.196000099182129 11.218999862670898,-0.0010000000474974513z"></path></g></g></g></g></svg>