<svg xmlns="http://www.w3.org/2000/svg" viewBox="0 0 640 640" focusable="false" width="640" height="640" preserveAspectRatio="xMidYMid meet" style="width: 100%; height: 100%;"><defs><clipPath id="animationMask_5CmT5B87Ns"><rect width="640" height="640" x="0" y="0"></rect></clipPath><clipPath id="cp_7wXdMg9o"><path d="M0,0 L640,0 L640,640 L0,640z"></path></clipPath><clipPath id="cp_z8oSyidG"><path d="M0,0 L800,0 L800,800 L0,800z"></path></clipPath><clipPath id="cp_nEzll3AA"><path d="M0,0 L800,0 L800,800 L0,800z"></path></clipPath><clipPath id="cp_5ve5L1S9"><path d="M0,0 L800,0 L800,800 L0,800z"></path></clipPath><clipPath id="cp_ZNRHREp2"><path d="M0,0 L800,0 L800,800 L0,800z"></path></clipPath><clipPath id="cp_KKFS3ciW"><path d="M0,0 L800,0 L800,800 L0,800z"></path></clipPath><clipPath id="cp_GjpkvLlk"><path d="M0,0 L200,0 L200,50 L0,50z"></path></clipPath><clipPath id="cp_BiZ1oGAm"><path d="M0,0 L800,0 L800,800 L0,800z"></path></clipPath><clipPath id="cp_HxzULoaL"><path d="M0,0 L200,0 L200,50 L0,50z"></path></clipPath><clipPath id="cp_fE7SfjeC"><path d="M0,0 L800,0 L800,800 L0,800z"></path></clipPath><clipPath id="cp_eHaPRuzO"><path d="M0,0 L800,0 L800,800 L0,800z"></path></clipPath><clipPath id="cp_qNGe1J7o"><path d="M0,0 L200,0 L200,50 L0,50z"></path></clipPath><clipPath id="cp_TmK1yMtA"><path d="M0,0 L800,0 L800,800 L0,800z"></path></clipPath><clipPath id="cp_wGHQfouE"><path d="M0,0 L200,0 L200,50 L0,50z"></path></clipPath></defs><g clip-path="url(#animationMask_5CmT5B87Ns)"><g clip-path="url(#cp_7wXdMg9o)" style="display: block;" transform="matrix(1,0,0,1,0,0)" opacity="1"><g clip-path="url(#cp_fE7SfjeC)" style="display: block;" transform="matrix(0.915,0.0962,-0.0962,0.915,46.4265,-72.1198)" opacity="1"><g clip-path="url(#cp_TmK1yMtA)" style="display: block;" transform="matrix(1,0,0,1,0,0)" opacity="1"><g style="user-select: none; display: block;" transform="matrix(1,0,0,1,399.369,228.085)" opacity="1"><g opacity="1" transform="matrix(1,0,0,1,102.244,166.349)"><path style="display: block;" fill="rgb(227,120,112)" fill-opacity="1" d="M0 0 M53.8849983215332,-48.6349983215332 C54.95199966430664,-63.17300033569336 57.29499816894531,-84.97000122070312 58.005001068115234,-108.95999908447266 C58.95100021362305,-140.9219970703125 56.1609992980957,-165.36900329589844 46.268001556396484,-174.49099731445312 C40.42399978637695,-178.99600219726562 35.33300018310547,-179.4219970703125 31.158000946044922,-177.68800354003906 C25.89299964904785,-175.50100708007812 21.52899932861328,-171.2429962158203 19.81599998474121,-162.61700439453125 C16.56399917602539,-150.177001953125 12.694999694824219,-125.92900085449219 9.17199993133545,-111.61699676513672 C5.735000133514404,-97.65399932861328 4.197000026702881,-91.26200103759766 0.9350000023841858,-81.63899993896484 C5.570000171661377,-95.27999877929688 10.545000076293945,-118.4280014038086 5.666999816894531,-149.4290008544922 C4.218999862670898,-158.6320037841797 1.777999997138977,-166.57699584960938 -0.8889999985694885,-173.19900512695312 C-3.8269999027252197,-180.97799682617188 -12.130999565124512,-184.41000366210938 -19.19300079345703,-181.41700744628906 C-25.301000595092773,-178.8280029296875 -29.43899917602539,-171.875 -28.863000869750977,-164.64100646972656 C-28.13800048828125,-157.0850067138672 -27.93199920654297,-147.68499755859375 -29.266000747680664,-136.9550018310547 C-31.67099952697754,-117.60299682617188 -34.4119987487793,-102.43099975585938 -38.625,-92.20999908447266 C-34.4119987487793,-102.43099975585938 -34.887001037597656,-103.13400268554688 -35.75400161743164,-121.77799987792969 C-36.23500061035156,-132.11599731445312 -37.992000579833984,-140.98899841308594 -39.95000076293945,-148.0500030517578 C-41.89500045776367,-154.30499267578125 -48.058998107910156,-158.05599975585938 -54.297000885009766,-156.83799743652344 C-60.41699981689453,-155.64300537109375 -64.98400115966797,-149.97900390625 -65.00599670410156,-143.49400329589844 C-64.85800170898438,-134.3780059814453 -65.36299896240234,-123.17500305175781 -67.5989990234375,-108.63099670410156 C-69.05999755859375,-99.12799835205078 -70.64800262451172,-90.25499725341797 -71.09400177001953,-83.28800201416016 C-71.0989990234375,-83.197998046875 -69.17400360107422,-91.10199737548828 -69.21099853515625,-104.93599700927734 C-69.22899627685547,-111.68399810791016 -69.01399993896484,-115.52300262451172 -69.35299682617188,-120.552001953125 C-69.91100311279297,-126.4469985961914 -76.73699951171875,-130.1909942626953 -82.21600341796875,-129.61099243164062 C-94.46199798583984,-128.04100036621094 -92.56999969482422,-99.20099639892578 -94.20999908447266,-88.99199676513672 C-95.3479995727539,-81.90399932861328 -95.60199737548828,-80.46600341796875 -97.51699829101562,-69.83699798583984 C-97.52400207519531,-69.79900360107422 -97.53099822998047,-69.76000213623047 -97.53800201416016,-69.72100067138672 C-99.5479965209961,-58.58399963378906 -100.63700103759766,-47.29399871826172 -100.74500274658203,-35.97700119018555 C-100.74500274658203,-35.97700119018555 -101.00499725341797,-8.777000427246094 -101.00499725341797,-8.777000427246094 C-101.00499725341797,-8.777000427246094 -101.00499725341797,101.1050033569336 -101.00499725341797,101.1050033569336 C-101.00499725341797,101.1050033569336 -101.00499725341797,154.27999877929688 -101.00499725341797,154.27999877929688 C-101.00499725341797,154.27999877929688 70.74199676513672,154.27999877929688 70.74199676513672,154.27999877929688 C70.76100158691406,138.66299438476562 70.77999877929688,109.20099639892578 70.79900360107422,93.58499908447266 C87.88700103759766,57.064998626708984 95.38700103759766,33.566001892089844 106.03900146484375,-23.32200050354004 C108.72100067138672,-37.64400100708008 112.41200256347656,-46.744998931884766 115.21800231933594,-59.94599914550781 C116.7770004272461,-69.20800018310547 113.9020004272461,-76.29900360107422 108.94499969482422,-79.18599700927734 C102.62300109863281,-82.86799621582031 93.7750015258789,-81.09100341796875 88.7040023803711,-74.48500061035156 C83.55699920654297,-67.59300231933594 78.41100311279297,-60.70000076293945 73.26399993896484,-53.80799865722656 C63.64099884033203,-51.542999267578125 30.785999298095703,-44.7859992980957 11.979999542236328,-21.636999130249023 C3.3580000400543213,-11.02400016784668 -1.3380000591278076,-0.33899998664855957 -3.9739999771118164,7.565999984741211"></path></g></g><g style="user-select: none; display: block;" transform="matrix(1,0,0,1,493.618,314.508)" opacity="1"><g opacity="1" transform="matrix(1,0,0,1,41.601,51.324)"><path stroke-linecap="round" stroke-linejoin="round" fill-opacity="0" style="display: block;" stroke="rgb(172,31,44)" stroke-opacity="1" stroke-width="3.995" d="M0 0 M19.86400032043457,-18.79599952697754 C6.159999847412109,-14.093999862670898 -10.092000007629395,-6.2820000648498535 -21.46500015258789,8.753000259399414 C-29.714000701904297,19.658000946044922 -33.82899856567383,31.475000381469727 -36.43600082397461,39.388999938964844"></path></g></g><g style="user-select: none; display: block;" transform="matrix(1,0,0,1,469.896,231.968)" opacity="1"><g opacity="1" transform="matrix(1,0,0,1,21.96,40.947)"><path stroke-linecap="round" stroke-linejoin="round" fill-opacity="0" style="display: block;" stroke="rgb(172,31,44)" stroke-opacity="1" stroke-width="4" d="M0 0 M14.137999534606934,29.38800048828125 C14.737000465393066,25.639999389648438 15.64799976348877,20.604000091552734 16.41900062561035,14.54800033569336"></path></g></g><g style="user-select: none; display: block;" transform="matrix(1,0,0,1,432.254,234.383)" opacity="1"><g opacity="1" transform="matrix(1,0,0,1,20.509,42.38)"><path stroke-linecap="round" stroke-linejoin="round" fill-opacity="0" style="display: block;" stroke="rgb(172,31,44)" stroke-opacity="1" stroke-width="3.995" d="M0 0 M11.645000457763672,34.909000396728516 C13.217000007629395,28.334999084472656 14.508999824523926,21.136999130249023 14.70199966430664,11.64900016784668"></path></g></g><g style="user-select: none; display: block;" transform="matrix(1.1621,0,0,1,411.1403,256.729)" opacity="1"><g opacity="1" transform="matrix(1,0,0,1,12.981,33.199)"><path stroke-linecap="round" stroke-linejoin="round" fill-opacity="0" style="display: block;" stroke="rgb(172,31,44)" stroke-opacity="1" stroke-width="3.995" d="M0 0 M4.757999897003174,6.046999931335449 C4.1579999923706055,15.881999969482422 2.381999969482422,22.874000549316406 2.3970000743865967,22.80699920654297"></path></g></g><g style="user-select: none; display: block;" transform="matrix(1,0,0,1,400,400)" opacity="1"></g><g clip-path="url(#cp_wGHQfouE)" style="display: block;" transform="matrix(1,0,0,1,393.5,537)" opacity="1"><g style="user-select: none; display: block;" transform="matrix(1,0,0,1,68.179,4.794)" opacity="1"><g opacity="1" transform="matrix(1,0,0,1,15.893,20.357)"><path style="display: block;" fill="rgb(172,31,44)" fill-opacity="1" d="M0 0 M-15.642999649047852,-19.860000610351562 C-15.642999649047852,-19.860000610351562 -15.326000213623047,20.106000900268555 -15.326000213623047,20.106000900268555 C-15.326000213623047,20.106000900268555 15.642999649047852,19.858999252319336 15.642999649047852,19.858999252319336 C15.642999649047852,19.858999252319336 15.324000358581543,-20.106000900268555 15.324000358581543,-20.106000900268555"></path></g></g><g style="user-select: none; display: block;" transform="matrix(1,0,0,1,37.212,5.04)" opacity="1"><g opacity="1" transform="matrix(1,0,0,1,15.893,20.356)"><path style="display: block;" fill="rgb(255,162,0)" fill-opacity="1" d="M0 0 M-15.642999649047852,-19.858999252319336 C-15.642999649047852,-19.858999252319336 -15.324999809265137,20.106000900268555 -15.324999809265137,20.106000900268555 C-15.324999809265137,20.106000900268555 15.642999649047852,19.860000610351562 15.642999649047852,19.860000610351562 C15.642999649047852,19.860000610351562 15.324999809265137,-20.106000900268555 15.324999809265137,-20.106000900268555"></path></g></g><g style="user-select: none; display: block;" transform="matrix(1,0,0,1,6.244,5.287)" opacity="1"><g opacity="1" transform="matrix(1,0,0,1,15.893,20.356)"><path style="display: block;" fill="rgb(172,31,44)" fill-opacity="1" d="M0 0 M-15.642999649047852,-19.858999252319336 C-15.642999649047852,-19.858999252319336 -15.324999809265137,20.106000900268555 -15.324999809265137,20.106000900268555 C-15.324999809265137,20.106000900268555 15.642999649047852,19.858999252319336 15.642999649047852,19.858999252319336 C15.642999649047852,19.858999252319336 15.324999809265137,-20.106000900268555 15.324999809265137,-20.106000900268555"></path></g></g><g style="user-select: none; display: block;" transform="matrix(1,0,0,1,130.116,4.3)" opacity="1"><g opacity="1" transform="matrix(1,0,0,1,15.893,20.356)"><path style="display: block;" fill="rgb(172,31,44)" fill-opacity="1" d="M0 0 M-15.642999649047852,-19.858999252319336 C-15.642999649047852,-19.858999252319336 -15.324999809265137,20.106000900268555 -15.324999809265137,20.106000900268555 C-15.324999809265137,20.106000900268555 15.642999649047852,19.858999252319336 15.642999649047852,19.858999252319336 C15.642999649047852,19.858999252319336 15.324999809265137,-20.106000900268555 15.324999809265137,-20.106000900268555"></path></g></g><g style="user-select: none; display: block;" transform="matrix(1,0,0,1,161.084,4.069)" opacity="1"><g opacity="1" transform="matrix(1,0,0,1,15.885,20.348)"><path style="display: block;" fill="rgb(255,162,0)" fill-opacity="1" d="M0 0 M-15.635000228881836,-19.868000030517578 C-15.635000228881836,-19.868000030517578 -15.317000389099121,20.097999572753906 -15.317000389099121,20.097999572753906 C-15.317000389099121,20.097999572753906 11,19.888999938964844 11,19.888999938964844 C13.567999839782715,19.868000030517578 15.635000228881836,17.768999099731445 15.61400032043457,15.199000358581543 C15.61400032043457,15.199000358581543 15.369999885559082,-15.46399974822998 15.369999885559082,-15.46399974822998 C15.348999977111816,-18.031999588012695 13.25,-20.097999572753906 10.680999755859375,-20.077999114990234 C10.680999755859375,-20.077999114990234 -15.635000228881836,-19.868000030517578 -15.635000228881836,-19.868000030517578z"></path></g></g><g style="user-select: none; display: block;" transform="matrix(1,0,0,1,99.148,4.547)" opacity="1"><g opacity="1" transform="matrix(1,0,0,1,15.893,20.356)"><path style="display: block;" fill="rgb(255,162,0)" fill-opacity="1" d="M0 0 M-15.642999649047852,-19.860000610351562 C-15.642999649047852,-19.860000610351562 -15.324999809265137,20.106000900268555 -15.324999809265137,20.106000900268555 C-15.324999809265137,20.106000900268555 15.642999649047852,19.858999252319336 15.642999649047852,19.858999252319336 C15.642999649047852,19.858999252319336 15.324999809265137,-20.106000900268555 15.324999809265137,-20.106000900268555"></path></g></g></g></g><g clip-path="url(#cp_eHaPRuzO)" style="display: none;" transform="matrix(1,0,0,1,0,0)" opacity="1"><g style="user-select: none; display: none;" transform="matrix(1,0,0,1,399.369,228.085)" opacity="1"><g opacity="1" transform="matrix(1,0,0,1,102.244,166.349)"><path style="display: none;" fill="rgb(227,120,112)" fill-opacity="1" d="M0 0 M66.72261047363281,-55.993186950683594 C65.2910385131836,-69.96659088134766 61.35856246948242,-91.7364730834961 49.325862884521484,-115.31876373291016 C33.76774978637695,-145.84165954589844 15.342328071594238,-164.08775329589844 3.0233919620513916,-172.93472290039062 C-4.154146671295166,-177.18792724609375 -11.517101287841797,-176.67550659179688 -16.039770126342773,-173.05596923828125 C-21.127546310424805,-168.9911651611328 -22.412883758544922,-161.36590576171875 -18.701663970947266,-155.46218872070312 C-14.282670974731445,-149.2114715576172 -9.19168758392334,-140.51075744628906 -4.913923263549805,-130.00181579589844 C1.1794699430465698,-115.34832000732422 3.2566471099853516,-102.26151275634766 3.8916397094726562,-92.94066619873047 C3.0026721954345703,-106.1574935913086 -0.8254246711730957,-131.6791229248047 -19.148242950439453,-155.0459442138672 C-24.587173461914062,-161.9827880859375 -30.341197967529297,-167.47764587402344 -35.698516845703125,-171.7957305908203 C-41.81977081298828,-176.9492950439453 -50.74454116821289,-176.3167724609375 -55.66919708251953,-170.9365692138672 C-59.92845153808594,-166.28382873535156 -60.46677017211914,-158.87469482421875 -56.6910514831543,-153.18728637695312 C-52.63850021362305,-147.29893493652344 -48.213016510009766,-139.68763732910156 -44.55665969848633,-130.3463897705078 C-37.961002349853516,-113.49876403808594 -36.602603912353516,-98.32289123535156 -36.61936569213867,-88.16193389892578 C-36.602603912353516,-98.32289123535156 -38.06250762939453,-113.04305267333984 -44.761436462402344,-129.8673553466797 C-48.476051330566406,-139.1962432861328 -52.94951629638672,-146.79090881347656 -57.040985107421875,-152.66363525390625 C-60.86766052246094,-157.80203247070312 -67.93424224853516,-159.35467529296875 -73.5059585571289,-156.32763671875 C-78.9712905883789,-153.35845947265625 -81.54718780517578,-146.76959228515625 -79.5257797241211,-140.81724548339844 C-76.51508331298828,-132.50697326660156 -73.47172546386719,-121.63712310791016 -72.0780258178711,-108.618408203125 C-71.08209991455078,-99.37592315673828 -71.12641143798828,-91.07720184326172 -71.5724105834961,-84.10923767089844 C-71.57837677001953,-84.02020263671875 -70.57242584228516,-94.7597885131836 -72.12889862060547,-108.50178527832031 C-72.88775634765625,-115.20523834228516 -73.99467468261719,-120.63247680664062 -74.87115478515625,-124.39960479736328 C-76.73461151123047,-129.70094299316406 -82.33069610595703,-132.76414489746094 -87.67411041259766,-131.579833984375 C-99.58406829833984,-128.6646728515625 -94.54754638671875,-100.2159194946289 -95.04285430908203,-89.88973999023438 C-95.38673400878906,-82.72135925292969 -96.08234405517578,-81.2872314453125 -97.99637603759766,-70.65823364257812 C-98.00337982177734,-70.62023162841797 -98.0103759765625,-70.58220672607422 -98.01737976074219,-70.54417419433594 C-100.02640533447266,-59.40620422363281 -101.11637878417969,-48.11620330810547 -101.22437286376953,-36.79920196533203 C-101.30863189697266,-28.018381118774414 -101.39915466308594,-18.379056930541992 -101.48340606689453,-9.598235130310059 C-101.48340606689453,25.872724533081055 -101.48340606689453,64.81183624267578 -101.48340606689453,100.28279876708984 C-101.48340606689453,117.44834899902344 -101.48340606689453,136.293212890625 -101.48340606689453,153.45877075195312 C-101.48340606689453,153.45877075195312 70.26455688476562,153.45877075195312 70.26455688476562,153.45877075195312 C70.28356170654297,137.84176635742188 70.30255889892578,108.38072967529297 70.32156372070312,92.76376342773438 C82.26909637451172,56.028770446777344 92.39356231689453,13.744989395141602 97.80921936035156,-34.8299446105957 C99.41722106933594,-49.31173324584961 100.33074188232422,-58.962806701660156 100.97615814208984,-72.43787384033203 C101.0253677368164,-81.82577514648438 97.04924774169922,-88.35992431640625 91.69325256347656,-90.4111557006836 C84.8637924194336,-93.02787780761719 76.42156982421875,-89.84954833984375 72.4807357788086,-82.5181884765625 C68.5113525390625,-74.89114379882812 64.5410385131836,-67.26406860351562 60.571659088134766,-59.63702392578125 C51.442562103271484,-55.85448455810547 27.837108612060547,-44.712398529052734 13.005575180053711,-18.852741241455078 C6.205206394195557,-6.996268272399902 3.2901628017425537,4.299815654754639 1.9605849981307983,12.52149486541748"></path></g></g><g style="user-select: none; display: none;" transform="matrix(1,0,0,1,493.618,314.508)" opacity="1"><g opacity="1" transform="matrix(1,0,0,1,41.601,51.324)"><path stroke-linecap="round" stroke-linejoin="round" fill-opacity="0" style="display: none;" stroke="rgb(172,31,44)" stroke-opacity="1" stroke-width="3.995" d="M0 0 M31.618000030517578,-40.242000579833984 C29.989999771118164,-37.1349983215332 28.42099952697754,-34.08599853515625 26.79400062561035,-30.961999893188477 C17.550289154052734,-27.12763786315918 -5.952217102050781,-16.0134220123291 -20.750293731689453,9.856050491333008 C-27.538888931274414,21.72077178955078 -30.43656349182129,33.05355453491211 -31.76619529724121,41.275516510009766"></path></g></g><g style="user-select: none; display: none;" transform="matrix(1,0,0,1,469.896,231.968)" opacity="1"><g opacity="1" transform="matrix(1,0,0,1,21.96,40.947)"><path stroke-linecap="round" stroke-linejoin="round" fill-opacity="0" style="display: none;" stroke="rgb(172,31,44)" stroke-opacity="1" stroke-width="4" d="M0 0 M13.684000015258789,29.7810001373291 C12.729999542236328,16.847999572753906 9.043000221252441,-8.079000473022461 -8.489999771118164,-31.094999313354492"></path></g></g><g style="user-select: none; display: none;" transform="matrix(1,0,0,1,432.254,234.383)" opacity="1"><g opacity="1" transform="matrix(1,0,0,1,20.509,42.38)"><path stroke-linecap="round" stroke-linejoin="round" fill-opacity="0" style="display: none;" stroke="rgb(172,31,44)" stroke-opacity="1" stroke-width="3.995" d="M0 0 M11.637252807617188,30.650779724121094 C11.595622062683105,20.50055503845215 10.20528507232666,5.448174953460693 3.480630874633789,-11.368009567260742 C-0.020999999716877937,-20.118999481201172 -4.139999866485596,-27.19300079345703 -8.029999732971191,-32.87900161743164"></path></g></g><g style="user-select: none; display: none;" transform="matrix(1.1621,0,0,1,411.1403,256.729)" opacity="1"><g opacity="1" transform="matrix(1,0,0,1,12.981,33.199)"><path stroke-linecap="round" stroke-linejoin="round" fill-opacity="0" style="display: none;" stroke="rgb(172,31,44)" stroke-opacity="1" stroke-width="3.995" d="M0 0 M0.07900000363588333,-19.554000854492188 C0.9729999899864197,-15.82800006866455 2.119999885559082,-10.35200023651123 2.9030001163482666,-3.6540000438690186 C4.508077621459961,10.084118843078613 3.531628370285034,20.916635513305664 3.5376319885253906,20.827638626098633"></path></g></g><g style="user-select: none; display: none;" transform="matrix(1,0,0,1,400,400)" opacity="1"></g><g clip-path="url(#cp_qNGe1J7o)" style="display: none;" transform="matrix(1,0,0,1,393.5,537)" opacity="1"><g style="user-select: none; display: none;" transform="matrix(1,0,0,1,68.179,4.794)" opacity="1"><g opacity="1" transform="matrix(1,0,0,1,15.893,20.357)"><path style="display: none;" fill="rgb(172,31,44)" fill-opacity="1" d="M0 0 M-15.642999649047852,-19.860000610351562 C-15.642999649047852,-19.860000610351562 -15.326000213623047,20.106000900268555 -15.326000213623047,20.106000900268555 C-15.326000213623047,20.106000900268555 15.642999649047852,19.858999252319336 15.642999649047852,19.858999252319336 C15.642999649047852,19.858999252319336 15.324000358581543,-20.106000900268555 15.324000358581543,-20.106000900268555"></path></g></g><g style="user-select: none; display: none;" transform="matrix(1,0,0,1,37.212,5.04)" opacity="1"><g opacity="1" transform="matrix(1,0,0,1,15.893,20.356)"><path style="display: none;" fill="rgb(255,162,0)" fill-opacity="1" d="M0 0 M-15.642999649047852,-19.858999252319336 C-15.642999649047852,-19.858999252319336 -15.324999809265137,20.106000900268555 -15.324999809265137,20.106000900268555 C-15.324999809265137,20.106000900268555 15.642999649047852,19.860000610351562 15.642999649047852,19.860000610351562 C15.642999649047852,19.860000610351562 15.324999809265137,-20.106000900268555 15.324999809265137,-20.106000900268555"></path></g></g><g style="user-select: none; display: none;" transform="matrix(1,0,0,1,6.244,5.287)" opacity="1"><g opacity="1" transform="matrix(1,0,0,1,15.893,20.356)"><path style="display: none;" fill="rgb(172,31,44)" fill-opacity="1" d="M0 0 M-15.642999649047852,-19.858999252319336 C-15.642999649047852,-19.858999252319336 -15.324999809265137,20.106000900268555 -15.324999809265137,20.106000900268555 C-15.324999809265137,20.106000900268555 15.642999649047852,19.858999252319336 15.642999649047852,19.858999252319336 C15.642999649047852,19.858999252319336 15.324999809265137,-20.106000900268555 15.324999809265137,-20.106000900268555"></path></g></g><g style="user-select: none; display: none;" transform="matrix(1,0,0,1,130.116,4.3)" opacity="1"><g opacity="1" transform="matrix(1,0,0,1,15.893,20.356)"><path style="display: none;" fill="rgb(172,31,44)" fill-opacity="1" d="M0 0 M-15.642999649047852,-19.858999252319336 C-15.642999649047852,-19.858999252319336 -15.324999809265137,20.106000900268555 -15.324999809265137,20.106000900268555 C-15.324999809265137,20.106000900268555 15.642999649047852,19.858999252319336 15.642999649047852,19.858999252319336 C15.642999649047852,19.858999252319336 15.324999809265137,-20.106000900268555 15.324999809265137,-20.106000900268555"></path></g></g><g style="user-select: none; display: none;" transform="matrix(1,0,0,1,161.084,4.069)" opacity="1"><g opacity="1" transform="matrix(1,0,0,1,15.885,20.348)"><path style="display: none;" fill="rgb(255,162,0)" fill-opacity="1" d="M0 0 M-15.635000228881836,-19.868000030517578 C-15.635000228881836,-19.868000030517578 -15.317000389099121,20.097999572753906 -15.317000389099121,20.097999572753906 C-15.317000389099121,20.097999572753906 11,19.888999938964844 11,19.888999938964844 C13.567999839782715,19.868000030517578 15.635000228881836,17.768999099731445 15.61400032043457,15.199000358581543 C15.61400032043457,15.199000358581543 15.369999885559082,-15.46399974822998 15.369999885559082,-15.46399974822998 C15.348999977111816,-18.031999588012695 13.25,-20.097999572753906 10.680999755859375,-20.077999114990234 C10.680999755859375,-20.077999114990234 -15.635000228881836,-19.868000030517578 -15.635000228881836,-19.868000030517578z"></path></g></g><g style="user-select: none; display: none;" transform="matrix(1,0,0,1,99.148,4.547)" opacity="1"><g opacity="1" transform="matrix(1,0,0,1,15.893,20.356)"><path style="display: none;" fill="rgb(255,162,0)" fill-opacity="1" d="M0 0 M-15.642999649047852,-19.860000610351562 C-15.642999649047852,-19.860000610351562 -15.324999809265137,20.106000900268555 -15.324999809265137,20.106000900268555 C-15.324999809265137,20.106000900268555 15.642999649047852,19.858999252319336 15.642999649047852,19.858999252319336 C15.642999649047852,19.858999252319336 15.324999809265137,-20.106000900268555 15.324999809265137,-20.106000900268555"></path></g></g></g></g></g><g clip-path="url(#cp_ZNRHREp2)" style="display: block;" transform="matrix(-0.915,0.0962,0.0962,0.915,595.5735,-72.1198)" opacity="1"><g clip-path="url(#cp_BiZ1oGAm)" style="display: block;" transform="matrix(1,0,0,1,0,0)" opacity="1"><g style="user-select: none; display: block;" transform="matrix(1,0,0,1,399.369,228.085)" opacity="1"><g opacity="1" transform="matrix(1,0,0,1,102.244,166.349)"><path style="display: block;" fill="rgb(227,120,112)" fill-opacity="1" d="M0 0 M53.8849983215332,-48.6349983215332 C54.95199966430664,-63.17300033569336 57.29499816894531,-84.97000122070312 58.005001068115234,-108.95999908447266 C58.95100021362305,-140.9219970703125 56.1609992980957,-165.36900329589844 46.268001556396484,-174.49099731445312 C40.42399978637695,-178.99600219726562 35.33300018310547,-179.4219970703125 31.158000946044922,-177.68800354003906 C25.89299964904785,-175.50100708007812 21.52899932861328,-171.2429962158203 19.81599998474121,-162.61700439453125 C16.56399917602539,-150.177001953125 12.694999694824219,-125.92900085449219 9.17199993133545,-111.61699676513672 C5.735000133514404,-97.65399932861328 4.197000026702881,-91.26200103759766 0.9350000023841858,-81.63899993896484 C5.570000171661377,-95.27999877929688 10.545000076293945,-118.4280014038086 5.666999816894531,-149.4290008544922 C4.218999862670898,-158.6320037841797 1.777999997138977,-166.57699584960938 -0.8889999985694885,-173.19900512695312 C-3.8269999027252197,-180.97799682617188 -12.130999565124512,-184.41000366210938 -19.19300079345703,-181.41700744628906 C-25.301000595092773,-178.8280029296875 -29.43899917602539,-171.875 -28.863000869750977,-164.64100646972656 C-28.13800048828125,-157.0850067138672 -27.93199920654297,-147.68499755859375 -29.266000747680664,-136.9550018310547 C-31.67099952697754,-117.60299682617188 -34.4119987487793,-102.43099975585938 -38.625,-92.20999908447266 C-34.4119987487793,-102.43099975585938 -34.887001037597656,-103.13400268554688 -35.75400161743164,-121.77799987792969 C-36.23500061035156,-132.11599731445312 -37.992000579833984,-140.98899841308594 -39.95000076293945,-148.0500030517578 C-41.89500045776367,-154.30499267578125 -48.058998107910156,-158.05599975585938 -54.297000885009766,-156.83799743652344 C-60.41699981689453,-155.64300537109375 -64.98400115966797,-149.97900390625 -65.00599670410156,-143.49400329589844 C-64.85800170898438,-134.3780059814453 -65.36299896240234,-123.17500305175781 -67.5989990234375,-108.63099670410156 C-69.05999755859375,-99.12799835205078 -70.64800262451172,-90.25499725341797 -71.09400177001953,-83.28800201416016 C-71.0989990234375,-83.197998046875 -69.17400360107422,-91.10199737548828 -69.21099853515625,-104.93599700927734 C-69.22899627685547,-111.68399810791016 -69.01399993896484,-115.52300262451172 -69.35299682617188,-120.552001953125 C-69.91100311279297,-126.4469985961914 -76.73699951171875,-130.1909942626953 -82.21600341796875,-129.61099243164062 C-94.46199798583984,-128.04100036621094 -92.56999969482422,-99.20099639892578 -94.20999908447266,-88.99199676513672 C-95.3479995727539,-81.90399932861328 -95.60199737548828,-80.46600341796875 -97.51699829101562,-69.83699798583984 C-97.52400207519531,-69.79900360107422 -97.53099822998047,-69.76000213623047 -97.53800201416016,-69.72100067138672 C-99.5479965209961,-58.58399963378906 -100.63700103759766,-47.29399871826172 -100.74500274658203,-35.97700119018555 C-100.74500274658203,-35.97700119018555 -101.00499725341797,-8.777000427246094 -101.00499725341797,-8.777000427246094 C-101.00499725341797,-8.777000427246094 -101.00499725341797,101.1050033569336 -101.00499725341797,101.1050033569336 C-101.00499725341797,101.1050033569336 -101.00499725341797,154.27999877929688 -101.00499725341797,154.27999877929688 C-101.00499725341797,154.27999877929688 70.74199676513672,154.27999877929688 70.74199676513672,154.27999877929688 C70.76100158691406,138.66299438476562 70.77999877929688,109.20099639892578 70.79900360107422,93.58499908447266 C87.88700103759766,57.064998626708984 95.38700103759766,33.566001892089844 106.03900146484375,-23.32200050354004 C108.72100067138672,-37.64400100708008 112.41200256347656,-46.744998931884766 115.21800231933594,-59.94599914550781 C116.7770004272461,-69.20800018310547 113.9020004272461,-76.29900360107422 108.94499969482422,-79.18599700927734 C102.62300109863281,-82.86799621582031 93.7750015258789,-81.09100341796875 88.7040023803711,-74.48500061035156 C83.55699920654297,-67.59300231933594 78.41100311279297,-60.70000076293945 73.26399993896484,-53.80799865722656 C63.64099884033203,-51.542999267578125 30.785999298095703,-44.7859992980957 11.979999542236328,-21.636999130249023 C3.3580000400543213,-11.02400016784668 -1.3380000591278076,-0.33899998664855957 -3.9739999771118164,7.565999984741211"></path></g></g><g style="user-select: none; display: block;" transform="matrix(1,0,0,1,493.618,314.508)" opacity="1"><g opacity="1" transform="matrix(1,0,0,1,41.601,51.324)"><path stroke-linecap="round" stroke-linejoin="round" fill-opacity="0" style="display: block;" stroke="rgb(172,31,44)" stroke-opacity="1" stroke-width="3.995" d="M0 0 M19.86400032043457,-18.79599952697754 C6.159999847412109,-14.093999862670898 -10.092000007629395,-6.2820000648498535 -21.46500015258789,8.753000259399414 C-29.714000701904297,19.658000946044922 -33.82899856567383,31.475000381469727 -36.43600082397461,39.388999938964844"></path></g></g><g style="user-select: none; display: block;" transform="matrix(1,0,0,1,469.896,231.968)" opacity="1"><g opacity="1" transform="matrix(1,0,0,1,21.96,40.947)"><path stroke-linecap="round" stroke-linejoin="round" fill-opacity="0" style="display: block;" stroke="rgb(172,31,44)" stroke-opacity="1" stroke-width="4" d="M0 0 M14.137999534606934,29.38800048828125 C14.737000465393066,25.639999389648438 15.64799976348877,20.604000091552734 16.41900062561035,14.54800033569336"></path></g></g><g style="user-select: none; display: block;" transform="matrix(1,0,0,1,432.254,234.383)" opacity="1"><g opacity="1" transform="matrix(1,0,0,1,20.509,42.38)"><path stroke-linecap="round" stroke-linejoin="round" fill-opacity="0" style="display: block;" stroke="rgb(172,31,44)" stroke-opacity="1" stroke-width="3.995" d="M0 0 M11.645000457763672,34.909000396728516 C13.217000007629395,28.334999084472656 14.508999824523926,21.136999130249023 14.70199966430664,11.64900016784668"></path></g></g><g style="user-select: none; display: block;" transform="matrix(1.1621,0,0,1,411.1403,256.729)" opacity="1"><g opacity="1" transform="matrix(1,0,0,1,12.981,33.199)"><path stroke-linecap="round" stroke-linejoin="round" fill-opacity="0" style="display: block;" stroke="rgb(172,31,44)" stroke-opacity="1" stroke-width="3.995" d="M0 0 M4.757999897003174,6.046999931335449 C4.1579999923706055,15.881999969482422 2.381999969482422,22.874000549316406 2.3970000743865967,22.80699920654297"></path></g></g><g style="user-select: none; display: block;" transform="matrix(1,0,0,1,400,400)" opacity="1"></g><g clip-path="url(#cp_HxzULoaL)" style="display: block;" transform="matrix(1,0,0,1,393.5,538.5)" opacity="1"><g style="user-select: none; display: block;" transform="matrix(-1,0,0,1,192.603,4.071)" opacity="1"><g opacity="1" transform="matrix(1,0,0,1,77.816,21.077)"><path style="display: block;" fill="rgb(172,31,44)" fill-opacity="1" d="M0 0 M-15.642999649047852,-19.860000610351562 C-15.642999649047852,-19.860000610351562 -15.326000213623047,20.106000900268555 -15.326000213623047,20.106000900268555 C-15.326000213623047,20.106000900268555 15.642999649047852,19.858999252319336 15.642999649047852,19.858999252319336 C15.642999649047852,19.858999252319336 15.324000358581543,-20.106000900268555 15.324000358581543,-20.106000900268555 C15.324000358581543,-20.106000900268555 -15.642999649047852,-19.860000610351562 -15.642999649047852,-19.860000610351562z"></path></g><g opacity="1" transform="matrix(1,0,0,1,46.848,21.324)"><path style="display: block;" fill="rgb(255,162,0)" fill-opacity="1" d="M0 0 M-15.642999649047852,-19.860000610351562 C-15.642999649047852,-19.860000610351562 -15.324999809265137,20.10700035095215 -15.324999809265137,20.10700035095215 C-15.324999809265137,20.10700035095215 15.642999649047852,19.860000610351562 15.642999649047852,19.860000610351562 C15.642999649047852,19.860000610351562 15.324999809265137,-20.10700035095215 15.324999809265137,-20.10700035095215 C15.324999809265137,-20.10700035095215 -15.642999649047852,-19.860000610351562 -15.642999649047852,-19.860000610351562z"></path></g><g opacity="1" transform="matrix(1,0,0,1,15.886,21.564)"><path style="display: block;" fill="rgb(172,31,44)" fill-opacity="1" d="M0 0 M-15.619999885559082,-16.233999252319336 C-15.619999885559082,-16.233999252319336 -15.359999656677246,16.4950008392334 -15.359999656677246,16.4950008392334 C-15.343999862670898,18.493000030517578 -13.711000442504883,20.099000930786133 -11.713000297546387,20.08300018310547 C-11.713000297546387,20.08300018310547 15.63700008392334,19.867000579833984 15.63700008392334,19.867000579833984 C15.63700008392334,19.867000579833984 15.319000244140625,-20.100000381469727 15.319000244140625,-20.100000381469727 C15.319000244140625,-20.100000381469727 -12.031000137329102,-19.881999969482422 -12.031000137329102,-19.881999969482422 C-14.029999732971191,-19.865999221801758 -15.63599967956543,-18.232999801635742 -15.619999885559082,-16.233999252319336z"></path></g><g opacity="1" transform="matrix(1,0,0,1,139.752,20.583)"><path style="display: block;" fill="rgb(172,31,44)" fill-opacity="1" d="M0 0 M15.324999809265137,-20.106000900268555 C15.324999809265137,-20.106000900268555 -15.642999649047852,-19.858999252319336 -15.642999649047852,-19.858999252319336 C-15.642999649047852,-19.858999252319336 -15.324000358581543,20.106000900268555 -15.324000358581543,20.106000900268555 C-15.324000358581543,20.106000900268555 15.642999649047852,19.860000610351562 15.642999649047852,19.860000610351562 C15.642999649047852,19.860000610351562 15.324999809265137,-20.106000900268555 15.324999809265137,-20.106000900268555z"></path></g><g opacity="1" transform="matrix(1,0,0,1,170.769,20.35)"><path style="display: block;" fill="rgb(255,162,0)" fill-opacity="1" d="M0 0 M15.692999839782715,19.874000549316406 C15.692999839782715,19.874000549316406 15.345999717712402,-20.100000381469727 15.345999717712402,-20.100000381469727 C15.345999717712402,-20.100000381469727 -15.692999839782715,-19.87299919128418 -15.692999839782715,-19.87299919128418 C-15.692999839782715,-19.87299919128418 -15.347999572753906,20.100000381469727 -15.347999572753906,20.100000381469727 C-15.347999572753906,20.100000381469727 15.692999839782715,19.874000549316406 15.692999839782715,19.874000549316406z"></path></g><g opacity="1" transform="matrix(1,0,0,1,108.784,20.83)"><path style="display: block;" fill="rgb(255,162,0)" fill-opacity="1" d="M0 0 M-15.642999649047852,-19.858999252319336 C-15.642999649047852,-19.858999252319336 -15.324999809265137,20.106000900268555 -15.324999809265137,20.106000900268555 C-15.324999809265137,20.106000900268555 15.642999649047852,19.858999252319336 15.642999649047852,19.858999252319336 C15.642999649047852,19.858999252319336 15.324000358581543,-20.106000900268555 15.324000358581543,-20.106000900268555 C15.324000358581543,-20.106000900268555 -15.642999649047852,-19.858999252319336 -15.642999649047852,-19.858999252319336z"></path></g></g></g><g style="user-select: none; display: none;" transform="matrix(1,0,0,1,390.507,377.728)" opacity="1"><g opacity="1" transform="matrix(1,0,0,1,0,0)"><path stroke-linecap="round" stroke-linejoin="round" fill-opacity="0" style="display: none;" stroke="rgb(172,31,44)" stroke-opacity="1" stroke-width="3.995" d="M0 0 M9.98799991607666,9.98799991607666 C9.98799991607666,9.98799991607666 9.982810974121094,30.283905029296875 9.982810974121094,30.283905029296875"></path></g></g></g><g clip-path="url(#cp_KKFS3ciW)" style="display: none;" transform="matrix(1,0,0,1,0,0)" opacity="1"><g style="user-select: none; display: none;" transform="matrix(1,0,0,1,399.369,228.085)" opacity="1"><g opacity="1" transform="matrix(1,0,0,1,102.244,166.349)"><path style="display: none;" fill="rgb(227,120,112)" fill-opacity="1" d="M0 0 M66.72261047363281,-55.993186950683594 C65.2910385131836,-69.96659088134766 61.35856246948242,-91.7364730834961 49.325862884521484,-115.31876373291016 C33.76774978637695,-145.84165954589844 15.342328071594238,-164.08775329589844 3.0233919620513916,-172.93472290039062 C-4.154146671295166,-177.18792724609375 -11.517101287841797,-176.67550659179688 -16.039770126342773,-173.05596923828125 C-21.127546310424805,-168.9911651611328 -22.412883758544922,-161.36590576171875 -18.701663970947266,-155.46218872070312 C-14.282670974731445,-149.2114715576172 -9.19168758392334,-140.51075744628906 -4.913923263549805,-130.00181579589844 C1.1794699430465698,-115.34832000732422 3.2566471099853516,-102.26151275634766 3.8916397094726562,-92.94066619873047 C3.0026721954345703,-106.1574935913086 -0.8254246711730957,-131.6791229248047 -19.148242950439453,-155.0459442138672 C-24.587173461914062,-161.9827880859375 -30.341197967529297,-167.47764587402344 -35.698516845703125,-171.7957305908203 C-41.81977081298828,-176.9492950439453 -50.74454116821289,-176.3167724609375 -55.66919708251953,-170.9365692138672 C-59.92845153808594,-166.28382873535156 -60.46677017211914,-158.87469482421875 -56.6910514831543,-153.18728637695312 C-52.63850021362305,-147.29893493652344 -48.213016510009766,-139.68763732910156 -44.55665969848633,-130.3463897705078 C-37.961002349853516,-113.49876403808594 -36.602603912353516,-98.32289123535156 -36.61936569213867,-88.16193389892578 C-36.602603912353516,-98.32289123535156 -38.06250762939453,-113.04305267333984 -44.761436462402344,-129.8673553466797 C-48.476051330566406,-139.1962432861328 -52.94951629638672,-146.79090881347656 -57.040985107421875,-152.66363525390625 C-60.86766052246094,-157.80203247070312 -67.93424224853516,-159.35467529296875 -73.5059585571289,-156.32763671875 C-78.9712905883789,-153.35845947265625 -81.54718780517578,-146.76959228515625 -79.5257797241211,-140.81724548339844 C-76.51508331298828,-132.50697326660156 -73.47172546386719,-121.63712310791016 -72.0780258178711,-108.618408203125 C-71.08209991455078,-99.37592315673828 -71.12641143798828,-91.07720184326172 -71.5724105834961,-84.10923767089844 C-71.57837677001953,-84.02020263671875 -70.57242584228516,-94.7597885131836 -72.12889862060547,-108.50178527832031 C-72.88775634765625,-115.20523834228516 -73.99467468261719,-120.63247680664062 -74.87115478515625,-124.39960479736328 C-76.73461151123047,-129.70094299316406 -82.33069610595703,-132.76414489746094 -87.67411041259766,-131.579833984375 C-99.58406829833984,-128.6646728515625 -94.54754638671875,-100.2159194946289 -95.04285430908203,-89.88973999023438 C-95.38673400878906,-82.72135925292969 -96.08234405517578,-81.2872314453125 -97.99637603759766,-70.65823364257812 C-98.00337982177734,-70.62023162841797 -98.0103759765625,-70.58220672607422 -98.01737976074219,-70.54417419433594 C-100.02640533447266,-59.40620422363281 -101.11637878417969,-48.11620330810547 -101.22437286376953,-36.79920196533203 C-101.30863189697266,-28.018381118774414 -101.39915466308594,-18.379056930541992 -101.48340606689453,-9.598235130310059 C-101.48340606689453,25.872724533081055 -101.48340606689453,64.81183624267578 -101.48340606689453,100.28279876708984 C-101.48340606689453,117.44834899902344 -101.48340606689453,136.293212890625 -101.48340606689453,153.45877075195312 C-101.48340606689453,153.45877075195312 70.26455688476562,153.45877075195312 70.26455688476562,153.45877075195312 C70.28356170654297,137.84176635742188 70.30255889892578,108.38072967529297 70.32156372070312,92.76376342773438 C82.26909637451172,56.028770446777344 92.39356231689453,13.744989395141602 97.80921936035156,-34.8299446105957 C99.41722106933594,-49.31173324584961 100.33074188232422,-58.962806701660156 100.97615814208984,-72.43787384033203 C101.0253677368164,-81.82577514648438 97.04924774169922,-88.35992431640625 91.69325256347656,-90.4111557006836 C84.8637924194336,-93.02787780761719 76.42156982421875,-89.84954833984375 72.4807357788086,-82.5181884765625 C68.5113525390625,-74.89114379882812 64.5410385131836,-67.26406860351562 60.571659088134766,-59.63702392578125 C51.442562103271484,-55.85448455810547 27.837108612060547,-44.712398529052734 13.005575180053711,-18.852741241455078 C6.205206394195557,-6.996268272399902 3.2901628017425537,4.299815654754639 1.9605849981307983,12.52149486541748"></path></g></g><g style="user-select: none; display: none;" transform="matrix(1,0,0,1,493.618,314.508)" opacity="1"><g opacity="1" transform="matrix(1,0,0,1,41.601,51.324)"><path stroke-linecap="round" stroke-linejoin="round" fill-opacity="0" style="display: none;" stroke="rgb(172,31,44)" stroke-opacity="1" stroke-width="3.995" d="M0 0 M31.618000030517578,-40.242000579833984 C29.989999771118164,-37.1349983215332 28.42099952697754,-34.08599853515625 26.79400062561035,-30.961999893188477 C17.550289154052734,-27.12763786315918 -5.952217102050781,-16.0134220123291 -20.750293731689453,9.856050491333008 C-27.538888931274414,21.72077178955078 -30.43656349182129,33.05355453491211 -31.76619529724121,41.275516510009766"></path></g></g><g style="user-select: none; display: none;" transform="matrix(1,0,0,1,469.896,231.968)" opacity="1"><g opacity="1" transform="matrix(1,0,0,1,21.96,40.947)"><path stroke-linecap="round" stroke-linejoin="round" fill-opacity="0" style="display: none;" stroke="rgb(172,31,44)" stroke-opacity="1" stroke-width="4" d="M0 0 M13.684000015258789,29.7810001373291 C12.729999542236328,16.847999572753906 9.043000221252441,-8.079000473022461 -8.489999771118164,-31.094999313354492"></path></g></g><g style="user-select: none; display: none;" transform="matrix(1,0,0,1,432.254,234.383)" opacity="1"><g opacity="1" transform="matrix(1,0,0,1,20.509,42.38)"><path stroke-linecap="round" stroke-linejoin="round" fill-opacity="0" style="display: none;" stroke="rgb(172,31,44)" stroke-opacity="1" stroke-width="3.995" d="M0 0 M11.637252807617188,30.650779724121094 C11.595622062683105,20.50055503845215 10.20528507232666,5.448174953460693 3.480630874633789,-11.368009567260742 C-0.020999999716877937,-20.118999481201172 -4.139999866485596,-27.19300079345703 -8.029999732971191,-32.87900161743164"></path></g></g><g style="user-select: none; display: none;" transform="matrix(1.1621,0,0,1,411.1403,256.729)" opacity="1"><g opacity="1" transform="matrix(1,0,0,1,12.981,33.199)"><path stroke-linecap="round" stroke-linejoin="round" fill-opacity="0" style="display: none;" stroke="rgb(172,31,44)" stroke-opacity="1" stroke-width="3.995" d="M0 0 M0.07900000363588333,-19.554000854492188 C0.9729999899864197,-15.82800006866455 2.119999885559082,-10.35200023651123 2.9030001163482666,-3.6540000438690186 C4.508077621459961,10.084118843078613 3.531628370285034,20.916635513305664 3.5376319885253906,20.827638626098633"></path></g></g><g style="user-select: none; display: none;" transform="matrix(1,0,0,1,400,400)" opacity="1"></g><g clip-path="url(#cp_GjpkvLlk)" style="display: none;" transform="matrix(1,0,0,1,393.5,538.5)" opacity="1"><g style="user-select: none; display: none;" transform="matrix(-1,0,0,1,192.603,4.071)" opacity="1"><g opacity="1" transform="matrix(1,0,0,1,77.816,21.077)"><path style="display: none;" fill="rgb(172,31,44)" fill-opacity="1" d="M0 0 M-15.642999649047852,-19.860000610351562 C-15.642999649047852,-19.860000610351562 -15.326000213623047,20.106000900268555 -15.326000213623047,20.106000900268555 C-15.326000213623047,20.106000900268555 15.642999649047852,19.858999252319336 15.642999649047852,19.858999252319336 C15.642999649047852,19.858999252319336 15.324000358581543,-20.106000900268555 15.324000358581543,-20.106000900268555 C15.324000358581543,-20.106000900268555 -15.642999649047852,-19.860000610351562 -15.642999649047852,-19.860000610351562z"></path></g><g opacity="1" transform="matrix(1,0,0,1,46.848,21.324)"><path style="display: none;" fill="rgb(255,162,0)" fill-opacity="1" d="M0 0 M-15.642999649047852,-19.860000610351562 C-15.642999649047852,-19.860000610351562 -15.324999809265137,20.10700035095215 -15.324999809265137,20.10700035095215 C-15.324999809265137,20.10700035095215 15.642999649047852,19.860000610351562 15.642999649047852,19.860000610351562 C15.642999649047852,19.860000610351562 15.324999809265137,-20.10700035095215 15.324999809265137,-20.10700035095215 C15.324999809265137,-20.10700035095215 -15.642999649047852,-19.860000610351562 -15.642999649047852,-19.860000610351562z"></path></g><g opacity="1" transform="matrix(1,0,0,1,15.886,21.564)"><path style="display: none;" fill="rgb(172,31,44)" fill-opacity="1" d="M0 0 M-15.619999885559082,-16.233999252319336 C-15.619999885559082,-16.233999252319336 -15.359999656677246,16.4950008392334 -15.359999656677246,16.4950008392334 C-15.343999862670898,18.493000030517578 -13.711000442504883,20.099000930786133 -11.713000297546387,20.08300018310547 C-11.713000297546387,20.08300018310547 15.63700008392334,19.867000579833984 15.63700008392334,19.867000579833984 C15.63700008392334,19.867000579833984 15.319000244140625,-20.100000381469727 15.319000244140625,-20.100000381469727 C15.319000244140625,-20.100000381469727 -12.031000137329102,-19.881999969482422 -12.031000137329102,-19.881999969482422 C-14.029999732971191,-19.865999221801758 -15.63599967956543,-18.232999801635742 -15.619999885559082,-16.233999252319336z"></path></g><g opacity="1" transform="matrix(1,0,0,1,139.752,20.583)"><path style="display: none;" fill="rgb(172,31,44)" fill-opacity="1" d="M0 0 M15.324999809265137,-20.106000900268555 C15.324999809265137,-20.106000900268555 -15.642999649047852,-19.858999252319336 -15.642999649047852,-19.858999252319336 C-15.642999649047852,-19.858999252319336 -15.324000358581543,20.106000900268555 -15.324000358581543,20.106000900268555 C-15.324000358581543,20.106000900268555 15.642999649047852,19.860000610351562 15.642999649047852,19.860000610351562 C15.642999649047852,19.860000610351562 15.324999809265137,-20.106000900268555 15.324999809265137,-20.106000900268555z"></path></g><g opacity="1" transform="matrix(1,0,0,1,170.769,20.35)"><path style="display: none;" fill="rgb(255,162,0)" fill-opacity="1" d="M0 0 M15.692999839782715,19.874000549316406 C15.692999839782715,19.874000549316406 15.345999717712402,-20.100000381469727 15.345999717712402,-20.100000381469727 C15.345999717712402,-20.100000381469727 -15.692999839782715,-19.87299919128418 -15.692999839782715,-19.87299919128418 C-15.692999839782715,-19.87299919128418 -15.347999572753906,20.100000381469727 -15.347999572753906,20.100000381469727 C-15.347999572753906,20.100000381469727 15.692999839782715,19.874000549316406 15.692999839782715,19.874000549316406z"></path></g><g opacity="1" transform="matrix(1,0,0,1,108.784,20.83)"><path style="display: none;" fill="rgb(255,162,0)" fill-opacity="1" d="M0 0 M-15.642999649047852,-19.858999252319336 C-15.642999649047852,-19.858999252319336 -15.324999809265137,20.106000900268555 -15.324999809265137,20.106000900268555 C-15.324999809265137,20.106000900268555 15.642999649047852,19.858999252319336 15.642999649047852,19.858999252319336 C15.642999649047852,19.858999252319336 15.324000358581543,-20.106000900268555 15.324000358581543,-20.106000900268555 C15.324000358581543,-20.106000900268555 -15.642999649047852,-19.858999252319336 -15.642999649047852,-19.858999252319336z"></path></g></g></g><g style="user-select: none; display: none;" transform="matrix(1,0,0,1,390.507,377.728)" opacity="1"><g opacity="1" transform="matrix(1,0,0,1,0,0)"><path stroke-linecap="round" stroke-linejoin="round" fill-opacity="0" style="display: none;" stroke="rgb(172,31,44)" stroke-opacity="1" stroke-width="3.995" d="M0 0 M9.98799991607666,9.98799991607666 C9.98799991607666,9.98799991607666 9.98799991607666,165.49404907226562 9.98799991607666,165.49404907226562"></path></g></g></g></g><g clip-path="url(#cp_z8oSyidG)" style="display: none;" transform="matrix(1,0,0,1,-80,-80)" opacity="1"><g clip-path="url(#cp_nEzll3AA)" style="display: none;" transform="matrix(1.1876,0,0,1.1876,-75.0349,-85.0349)" opacity="1"><g style="user-select: none; display: none;" transform="matrix(1,0,0,1,286.377,349.0258)" opacity="1"><g opacity="1" transform="matrix(1,0,0,1,113.993,75.664)"><path style="display: none;" fill="rgb(233,214,203)" fill-opacity="1" d="M0 0 M83.822998046875,75.18599700927734 C83.822998046875,75.18599700927734 -83.822998046875,75.18599700927734 -83.822998046875,75.18599700927734 C-94.81099700927734,75.18599700927734 -103.8010025024414,66.19599914550781 -103.8010025024414,55.20800018310547 C-103.8010025024414,55.20800018310547 -103.85199737548828,49.54199981689453 -103.85199737548828,49.54199981689453 C-103.85199737548828,38.55500030517578 -103.87000274658203,35.810001373291016 -103.8740005493164,29.479000091552734 C-103.8740005493164,29.479000091552734 103.67900085449219,29.572999954223633 103.67900085449219,29.572999954223633 C103.75599670410156,35.180999755859375 103.75,38.55500030517578 103.75,49.54199981689453 C103.75,49.54199981689453 103.8010025024414,55.20800018310547 103.8010025024414,55.20800018310547 C103.8010025024414,66.19599914550781 94.81099700927734,75.18599700927734 83.822998046875,75.18599700927734z"></path></g></g><g style="user-select: none; display: none;" transform="matrix(1,0,0,0.965,286.377,341.4845)" opacity="1"><g opacity="1" transform="matrix(1,0,0,1,113.788,75.436)"><path style="display: none;" fill="rgb(244,235,230)" fill-opacity="1" d="M0 0 M83.822998046875,75.18599700927734 C83.822998046875,75.18599700927734 -83.822998046875,75.18599700927734 -83.822998046875,75.18599700927734 C-94.81099700927734,75.18599700927734 -103.8010025024414,66.19599914550781 -103.8010025024414,55.20800018310547 C-103.8010025024414,55.20800018310547 -103.8010025024414,-55.20800018310547 -103.8010025024414,-55.20800018310547 C-103.8010025024414,-66.19499969482422 -94.81099700927734,-75.18599700927734 -83.822998046875,-75.18599700927734 C-83.822998046875,-75.18599700927734 83.822998046875,-75.18599700927734 83.822998046875,-75.18599700927734 C94.81099700927734,-75.18599700927734 103.8010025024414,-66.19499969482422 103.8010025024414,-55.20800018310547 C103.8010025024414,-55.20800018310547 103.8010025024414,55.20800018310547 103.8010025024414,55.20800018310547 C103.8010025024414,66.19599914550781 94.81099700927734,75.18599700927734 83.822998046875,75.18599700927734z"></path></g></g><g clip-path="url(#cp_5ve5L1S9)" style="display: none;" transform="matrix(1,0,0,0.965,0.001,14.511)" opacity="1"><g style="user-select: none; display: none;" transform="matrix(1,0,0,1,286.377,338.842)" opacity="1"><g opacity="1" transform="matrix(1,0,0,1,114.378,77.447)"><path stroke-linecap="round" stroke-linejoin="round" fill-opacity="0" style="display: none;" stroke="rgb(255,162,0)" stroke-opacity="1" stroke-width="3.995" d="M0 0"></path></g></g><g style="user-select: none; display: none;" transform="matrix(1,0,0,1,286.377,338.842)" opacity="1"><g opacity="1" transform="matrix(1,0,0,1,114.378,77.447)"><path stroke-linecap="round" stroke-linejoin="round" fill-opacity="0" style="display: none;" stroke="rgb(255,162,0)" stroke-opacity="1" stroke-width="3.995" d="M0 0 M-103.50499725341797,-29.915000915527344 C-103.50499725341797,-29.915000915527344 -91.39800262451172,-26.452999114990234 -75.48600006103516,-21.902999877929688"></path></g></g><g style="user-select: none; display: none;" transform="matrix(1,0,0,1,286.377,338.842)" opacity="1"><g opacity="1" transform="matrix(1,0,0,1,123.238,74.808)"><path stroke-linecap="round" stroke-linejoin="round" fill-opacity="0" style="display: none;" stroke="rgb(255,162,0)" stroke-opacity="1" stroke-width="3.995" d="M0 0"></path></g></g><g style="user-select: none; display: none;" transform="matrix(-1,0,0,1,514.997,339.092)" opacity="1"><g opacity="1" transform="matrix(1,0,0,1,114.378,77.447)"><path stroke-linecap="round" stroke-linejoin="round" fill-opacity="0" style="display: none;" stroke="rgb(255,162,0)" stroke-opacity="1" stroke-width="3.995" d="M0 0"></path></g></g><g style="user-select: none; display: none;" transform="matrix(-1,0,0,1,514.997,339.092)" opacity="1"><g opacity="1" transform="matrix(1,0,0,1,114.378,77.447)"><path stroke-linecap="round" stroke-linejoin="round" fill-opacity="0" style="display: none;" stroke="rgb(255,162,0)" stroke-opacity="1" stroke-width="3.995" d="M0 0"></path></g></g><g style="user-select: none; display: none;" transform="matrix(-1,0,0,1,514.997,339.092)" opacity="1"><g opacity="1" transform="matrix(1,0,0,1,123.238,74.808)"><path stroke-linecap="round" stroke-linejoin="round" fill-opacity="0" style="display: none;" stroke="rgb(255,162,0)" stroke-opacity="1" stroke-width="3.995" d="M0 0"></path></g></g></g></g></g></g></g></svg>