<svg xmlns="http://www.w3.org/2000/svg" viewBox="0 0 800 800" focusable="false" width="800" height="800" preserveAspectRatio="xMidYMid meet" style="width: 100%; height: 100%;"><defs><clipPath id="animationMask_WgrTiUHPpK"><rect width="800" height="800" x="0" y="0"></rect></clipPath><clipPath id="DQ6FI9IxhY"><path fill="#ffffff" clip-rule="nonzero" d=" M212.8300018310547,-10.793999671936035 C212.8300018310547,-10.793999671936035 -23.381999969482422,-42.60499954223633 -23.381999969482422,-42.60499954223633 C-23.381999969482422,-42.60499954223633 -50.95800018310547,162.15899658203125 -50.95800018310547,162.15899658203125 C-50.95800018310547,162.15899658203125 185.25399780273438,193.97000122070312 185.25399780273438,193.97000122070312 C185.25399780273438,193.97000122070312 212.8300018310547,-10.793999671936035 212.8300018310547,-10.793999671936035" fill-opacity="1"></path></clipPath></defs><g clip-path="url(#animationMask_WgrTiUHPpK)"><g></g><g clip-path="url(#DQ6FI9IxhY)" style="user-select: none; display: block;" transform="matrix(1.9239,-0.5466,0.5466,1.9239,359.2651,312.8413)" opacity="1"><g opacity="1" transform="matrix(1,0,0,1,66.31,76.755)"><path style="display: block;" fill="rgb(248,170,142)" fill-opacity="1" d="M0 0 M66.05999755859375,44.555999755859375 C41.358001708984375,51.553001403808594 16.656999588012695,58.55099868774414 -8.045000076293945,65.54900360107422 C-9.642000198364258,59.702999114990234 -11.239999771118164,53.858001708984375 -12.836999893188477,48.012001037597656 C-17.084999084472656,45.23400115966797 -22.695999145507812,40.882999420166016 -28.016000747680664,34.39799880981445 C-35.119998931884766,25.73699951171875 -38.56700134277344,17.091999053955078 -40.28499984741211,11.531000137329102 C-42.13399887084961,5.057000160217285 -44.939998626708984,-2.5859999656677246 -49.29199981689453,-10.699999809265137 C-51.66899871826172,-15.133999824523926 -54.15999984741211,-19.05699920654297 -56.58700180053711,-22.483999252319336 C-58.12099838256836,-24.148000717163086 -58.32600021362305,-26.611000061035156 -57.1510009765625,-28.378999710083008 C-55.82400131225586,-30.375999450683594 -53.018001556396484,-31.062999725341797 -50.76499938964844,-29.80299949645996 C-49.42599868774414,-28.881000518798828 -47.41999816894531,-27.459999084472656 -45.060001373291016,-25.62299919128418 C-38.801998138427734,-20.7549991607666 -34.06800079345703,-16.09000015258789 -34.055999755859375,-16.104000091552734 C-34.05099868774414,-16.108999252319336 -34.81100082397461,-16.841999053955078 -36.15700149536133,-18.062999725341797 C-38.891998291015625,-20.54199981689453 -43.777000427246094,-24.94099998474121 -50.76499938964844,-29.80299949645996 C-53.81399917602539,-31.923999786376953 -57.694000244140625,-34.433998107910156 -62.36199951171875,-37.01900100708008 C-65.10800170898438,-38.70800018310547 -66.05999755859375,-42.119998931884766 -64.76000213623047,-44.66400146484375 C-63.70000076293945,-46.737998962402344 -61.394954681396484,-47.98614501953125 -58.86795425415039,-47.664146423339844 C-54.22395324707031,-46.22114562988281 -48.858253479003906,-43.965240478515625 -43.29346466064453,-40.839481353759766 C-35.81369400024414,-36.63813018798828 -29.42437744140625,-32.69438171386719 -24.38599967956543,-28.90999984741211 C-28.465198516845703,-33.914649963378906 -34.94987869262695,-38.28614044189453 -42.763877868652344,-42.26713943481445 C-48.45087814331055,-45.165138244628906 -50.690914154052734,-46.764617919921875 -56.749610900878906,-49.35567092895508 C-59.31561279296875,-50.78567123413086 -61.74934387207031,-54.503257751464844 -60.52434539794922,-57.067256927490234 C-59.362342834472656,-59.5002555847168 -57.08673858642578,-60.75807189941406 -52.97845458984375,-60.07009506225586 C-49.137454986572266,-59.172096252441406 -45.28449249267578,-58.11132049560547 -38.868629455566406,-55.38750076293945 C-26.694366455078125,-50.223934173583984 -15.959059715270996,-44.034584045410156 -15.954059600830078,-44.043582916259766 C-15.948060035705566,-44.05458068847656 -21.620569229125977,-48.473968505859375 -33.89496994018555,-56.02077865600586 C-39.46890640258789,-59.456661224365234 -43.74758529663086,-61.6445198059082 -47.119102478027344,-64.22711181640625 C-48.64010238647461,-65.89311218261719 -50.6099967956543,-69.01123809814453 -49.532623291015625,-71.45978546142578 C-48.10588836669922,-74.72886657714844 -46.19729995727539,-74.40381622314453 -44.29730224609375,-74.25281524658203 C-34.15632629394531,-73.00756072998047 -23.740638732910156,-66.36085510253906 -7.165205955505371,-57.30070495605469 C-1.6711128950119019,-54.3000373840332 7.060999870300293,-48.763999938964844 16.93899917602539,-42.069000244140625 C17.030000686645508,-42.00699996948242 17.121000289916992,-41.94599914550781 17.209999084472656,-41.8849983215332 C30.493999481201172,-32.85100173950195 40.75299835205078,-20.049999237060547 46.88800048828125,-5.203999996185303 C50.861000061035156,4.4120001792907715 54.77199935913086,14.26200008392334 58.60300064086914,24.343000411987305 C61.18600082397461,31.141000747680664 63.66999816894531,37.87900161743164 66.05999755859375,44.555999755859375z"></path></g><g opacity="1" transform="matrix(1,0,0,1,22.351,52.719)"><path stroke-linecap="round" stroke-linejoin="round" fill-opacity="0" style="display: block;" stroke="rgb(172,31,44)" stroke-opacity="1" stroke-width="1.505" d="M0 0 M8.913000106811523,8.361000061035156 C6.178999900817871,5.881999969482422 0.09300000220537186,-1.190000057220459 -6.894999980926514,-6.052999973297119"></path></g><g opacity="1" transform="matrix(1,0,0,1,24.176,38.69)"><path stroke-linecap="round" stroke-linejoin="round" fill-opacity="0" style="display: block;" stroke="rgb(172,31,44)" stroke-opacity="1" stroke-width="1.505" d="M0 0 M17.600547790527344,8.83161735534668 C17.600547790527344,8.83161735534668 -0.33251872658729553,-6.490890026092529 -14.84151840209961,-11.337889671325684"></path></g><g opacity="1" transform="matrix(1,0,0,1,31.884,26.023)"><path stroke-linecap="round" stroke-linejoin="round" fill-opacity="0" style="display: block;" stroke="rgb(172,31,44)" stroke-opacity="1" stroke-width="1.505" d="M0 0 M18.246000289916992,6.409999847412109 C18.246000289916992,6.409999847412109 0.34310755133628845,-6.30131196975708 -12.733047485351562,-13.363129615783691"></path></g><g opacity="1" transform="matrix(1,0,0,1,91.336,142.708)"><path style="display: block;" fill="rgb(172,31,44)" fill-opacity="1" d="M0 0 M-9.628000259399414,-7.124000072479248 C-9.628000259399414,-7.124000072479248 -4.494999885559082,11.10200023651123 -4.494999885559082,11.10200023651123 C-4.494999885559082,11.10200023651123 9.628000259399414,7.124000072479248 9.628000259399414,7.124000072479248 C9.628000259399414,7.124000072479248 4.494999885559082,-11.10200023651123 4.494999885559082,-11.10200023651123 C4.494999885559082,-11.10200023651123 -9.628000259399414,-7.124000072479248 -9.628000259399414,-7.124000072479248z"></path></g><g opacity="1" transform="matrix(1,0,0,1,77.214,146.686)"><path style="display: block;" fill="rgb(246,135,68)" fill-opacity="1" d="M0 0 M-9.628000259399414,-7.124000072479248 C-9.628000259399414,-7.124000072479248 -4.49399995803833,11.10200023651123 -4.49399995803833,11.10200023651123 C-4.49399995803833,11.10200023651123 9.628000259399414,7.124000072479248 9.628000259399414,7.124000072479248 C9.628000259399414,7.124000072479248 4.494999885559082,-11.10200023651123 4.494999885559082,-11.10200023651123 C4.494999885559082,-11.10200023651123 -9.628000259399414,-7.124000072479248 -9.628000259399414,-7.124000072479248z"></path></g><g opacity="1" transform="matrix(1,0,0,1,63.092,150.663)"><path style="display: block;" fill="rgb(172,31,44)" fill-opacity="1" d="M0 0 M-9.628000259399414,-7.123000144958496 C-9.628000259399414,-7.123000144958496 -4.49399995803833,11.10200023651123 -4.49399995803833,11.10200023651123 C-4.49399995803833,11.10200023651123 9.628000259399414,7.124000072479248 9.628000259399414,7.124000072479248 C9.628000259399414,7.124000072479248 4.49399995803833,-11.10200023651123 4.49399995803833,-11.10200023651123 C4.49399995803833,-11.10200023651123 -9.628000259399414,-7.123000144958496 -9.628000259399414,-7.123000144958496z"></path></g><g opacity="1" transform="matrix(1,0,0,1,119.581,134.753)"><path style="display: block;" fill="rgb(172,31,44)" fill-opacity="1" d="M0 0 M4.49399995803833,-11.10200023651123 C4.49399995803833,-11.10200023651123 -9.628000259399414,-7.123000144958496 -9.628000259399414,-7.123000144958496 C-9.628000259399414,-7.123000144958496 -4.494999885559082,11.10200023651123 -4.494999885559082,11.10200023651123 C-4.494999885559082,11.10200023651123 9.628000259399414,7.124000072479248 9.628000259399414,7.124000072479248 C9.628000259399414,7.124000072479248 4.49399995803833,-11.10200023651123 4.49399995803833,-11.10200023651123z"></path></g><g opacity="1" transform="matrix(1,0,0,1,133.703,130.776)"><path style="display: block;" fill="rgb(246,135,68)" fill-opacity="1" d="M0 0 M9.628000259399414,7.124000072479248 C9.628000259399414,7.124000072479248 4.49399995803833,-11.10200023651123 4.49399995803833,-11.10200023651123 C4.49399995803833,-11.10200023651123 -9.628000259399414,-7.124000072479248 -9.628000259399414,-7.124000072479248 C-9.628000259399414,-7.124000072479248 -4.49399995803833,11.10200023651123 -4.49399995803833,11.10200023651123 C-4.49399995803833,11.10200023651123 9.628000259399414,7.124000072479248 9.628000259399414,7.124000072479248z"></path></g><g opacity="1" transform="matrix(1,0,0,1,105.458,138.731)"><path style="display: block;" fill="rgb(246,135,68)" fill-opacity="1" d="M0 0 M-9.628000259399414,-7.124000072479248 C-9.628000259399414,-7.124000072479248 -4.494999885559082,11.10200023651123 -4.494999885559082,11.10200023651123 C-4.494999885559082,11.10200023651123 9.628000259399414,7.124000072479248 9.628000259399414,7.124000072479248 C9.628000259399414,7.124000072479248 4.494999885559082,-11.10200023651123 4.494999885559082,-11.10200023651123 C4.494999885559082,-11.10200023651123 -9.628000259399414,-7.124000072479248 -9.628000259399414,-7.124000072479248z"></path></g></g><g style="user-select: none; display: block;" transform="matrix(1.9407,0.4833,-0.4833,1.9407,270.0906,144.694)" opacity="1"><g opacity="1" transform="matrix(1,0,0,1,85.249,13.971)"><path style="display: block;" fill="rgb(248,170,142)" fill-opacity="1" d="M0 0 M-14.095999717712402,-8.986000061035156 C-12.276000022888184,-9.28499984741211 -4.302000045776367,-10.388999938964844 3.4760000705718994,-5.2829999923706055 C11.812000274658203,0.1889999955892563 13.755999565124512,8.744000434875488 14.095999717712402,10.388999938964844 C12.027999877929688,9.220999717712402 8.687999725341797,7.664000034332275 4.308000087738037,6.9730000495910645 C0.5109999775886536,6.374000072479248 -2.703000068664551,6.638999938964844 -4.895999908447266,6.994999885559082 C-6.988999843597412,7.3979997634887695 -9.081000328063965,7.800000190734863 -11.173999786376953,8.20199966430664"></path></g><g opacity="1" transform="matrix(1,0,0,1,60.679,113.484)"><path style="display: block;" fill="rgb(246,135,68)" fill-opacity="1" d="M0 0 M-1.0080000162124634,-82.25800323486328 C-1.0080000162124634,-82.25800323486328 20.09600067138672,79.4530029296875 20.09600067138672,79.4530029296875 C20.09600067138672,79.4530029296875 -0.7279999852180481,82.25800323486328 -0.7279999852180481,82.25800323486328 C-0.7279999852180481,82.25800323486328 -20.09600067138672,-79.68699645996094 -20.09600067138672,-79.68699645996094"></path></g><g opacity="1" transform="matrix(1,0,0,1,48.116,18.265)"><path style="display: block;" fill="rgb(172,31,44)" fill-opacity="1" d="M0 0 M-22.89299964904785,18.014999389648438 C-22.89299964904785,18.014999389648438 27.086000442504883,10.722999572753906 27.086000442504883,10.722999572753906 C27.086000442504883,10.722999572753906 22.89299964904785,-18.014999389648438 22.89299964904785,-18.014999389648438 C22.89299964904785,-18.014999389648438 -27.086000442504883,-10.722000122070312 -27.086000442504883,-10.722000122070312 C-27.086000442504883,-10.722000122070312 -22.89299964904785,18.014999389648438 -22.89299964904785,18.014999389648438z"></path></g><g opacity="1" transform="matrix(1,0,0,1,6.738,24.714)"><path style="display: block;" fill="rgb(172,31,44)" fill-opacity="1" d="M0 0 M-3.490000009536743,10.345999717712402 C-3.490000009536743,10.345999717712402 6.48799991607666,8.781999588012695 6.48799991607666,8.781999588012695 C6.48799991607666,8.781999588012695 3.492000102996826,-10.345999717712402 3.492000102996826,-10.345999717712402 C3.492000102996826,-10.345999717712402 -6.48799991607666,-8.781000137329102 -6.48799991607666,-8.781000137329102 C-6.48799991607666,-8.781000137329102 -3.490000009536743,10.345999717712402 -3.490000009536743,10.345999717712402z"></path></g><g opacity="1" transform="matrix(1,0,0,1,17.926,21.911)"><path style="display: block;" fill="rgb(248,170,142)" fill-opacity="1" d="M0 0 M3.1040000915527344,-14.368000030517578 C3.1040000915527344,-14.368000030517578 2.871999979019165,-5.14900016784668 -7.296999931335449,-4.38100004196167 C-7.296999931335449,-4.38100004196167 -5.269999980926514,8.116999626159668 -5.269999980926514,8.116999626159668 C3.9719998836517334,8.696000099182129 7.296999931335449,14.368000030517578 7.296999931335449,14.368000030517578"></path></g></g><g style="user-select: none; display: none;"><g><path style="display: none;"></path></g><g><path style="display: none;"></path></g><g><path style="display: none;"></path></g><g><path style="display: none;"></path></g><g><path style="display: none;"></path></g></g><g style="user-select: none; display: none;"><g><path style="display: none;"></path></g><g><path style="display: none;"></path></g><g><path style="display: none;"></path></g><g><path style="display: none;"></path></g><g><path stroke-linecap="round" stroke-linejoin="round" fill-opacity="0" style="display: none;"></path></g><g><path stroke-linecap="round" stroke-linejoin="round" fill-opacity="0" style="display: none;"></path></g><g><path stroke-linecap="round" stroke-linejoin="round" fill-opacity="0" style="display: none;"></path></g></g><g style="user-select: none; display: block;" transform="matrix(1.9013,-0.6206,0.6206,1.9013,354.3887,321.0382)" opacity="1"><g opacity="1" transform="matrix(1,0,0,1,80.807,45.442)"><path style="display: block;" fill="rgb(248,170,142)" fill-opacity="1" d="M0 0 M34.507999420166016,33.2760009765625 C32.551998138427734,23.447999954223633 27.42799949645996,4.581999778747559 12.616999626159668,-14.083999633789062 C-0.5360000133514404,-30.66200065612793 -15.430000305175781,-39.645999908447266 -24.136999130249023,-44.06100082397461 C-26.881000518798828,-45.28200149536133 -30.075000762939453,-44.65999984741211 -32.053001403808594,-42.555999755859375 C-34.250999450683594,-40.21799850463867 -34.507999420166016,-36.516998291015625 -32.58000183105469,-33.76499938964844 C-28.33099937438965,-27.31399917602539 -24.08099937438965,-20.863000869750977 -19.832000732421875,-14.413000106811523 C-21.858999252319336,-7.570000171661377 -23.88599967956543,-0.7269999980926514 -25.913000106811523,6.114999771118164 C-27.28700065612793,10.814000129699707 -29,19.006999969482422 -27.530000686645508,29.000999450683594 C-26.50200080871582,35.99700164794922 -24.256999969482422,41.53099822998047 -22.36400032043457,45.28300094604492"></path></g><g opacity="1" transform="matrix(1,0,0,1,56.159,53.682)"><path stroke-linecap="round" stroke-linejoin="round" fill-opacity="0" style="display: block;" stroke="rgb(172,31,44)" stroke-opacity="1" stroke-width="1.505" d="M0 0 M-4.798999786376953,-37.132999420166016 C-1.5989999771118164,-32.2760009765625 1.600000023841858,-27.417999267578125 4.798999786376953,-22.562000274658203 C2.7720000743865967,-15.718999862670898 0.7450000047683716,-8.876999855041504 -1.281999945640564,-2.0350000858306885 C-2.6559998989105225,2.6640000343322754 -4.36899995803833,10.857999801635742 -2.8989999294281006,20.85099983215332 C-1.871000051498413,27.847000122070312 0.37400001287460327,33.38100051879883 2.2669999599456787,37.132999420166016"></path></g></g></g></svg>