<svg width="25" height="19" viewBox="0 0 25 19" fill="none" xmlns="http://www.w3.org/2000/svg">
<path d="M21.8333 0.166504H3.16668C1.87751 0.166504 0.833344 1.21067 0.833344 2.49984V16.4998C0.833344 17.789 1.87751 18.8332 3.16668 18.8332H21.8333C23.1225 18.8332 24.1667 17.789 24.1667 16.4998V2.49984C24.1667 1.21067 23.1225 0.166504 21.8333 0.166504ZM16 14.1665C14.5977 14.1665 13.3552 13.5353 12.5 12.5565C11.6448 13.5353 10.4023 14.1665 9.00001 14.1665C6.42284 14.1665 4.33334 12.077 4.33334 9.49984C4.33334 6.92267 6.42284 4.83317 9.00001 4.83317C10.4023 4.83317 11.6448 5.46434 12.5 6.44317C13.3552 5.46434 14.5977 4.83317 16 4.83317C18.5772 4.83317 20.6667 6.92267 20.6667 9.49984C20.6667 12.077 18.5772 14.1665 16 14.1665Z" fill="#1A1A1A"/>
</svg>