<svg width="18" height="18" viewBox="0 0 18 18" fill="none" xmlns="http://www.w3.org/2000/svg">
<path d="M7.56273 12.908L13.9587 6.512L13.2507 5.804L7.56273 11.492L4.71273 8.642L4.00473 9.35L7.56273 12.908ZM9.00373 18C7.75973 18 6.58973 17.764 5.49373 17.292C4.3984 16.8193 3.4454 16.178 2.63473 15.368C1.82407 14.5587 1.1824 13.6067 0.709733 12.512C0.237066 11.4173 0.000732422 10.2477 0.000732422 9.003C0.000732422 7.759 0.236732 6.589 0.708732 5.493C1.1814 4.39767 1.82273 3.44467 2.63273 2.634C3.44207 1.82333 4.39407 1.18167 5.48873 0.709C6.5834 0.236333 7.75307 0 8.99773 0C10.2417 0 11.4117 0.236 12.5077 0.708C13.6031 1.18067 14.5561 1.822 15.3667 2.632C16.1774 3.44133 16.8191 4.39333 17.2917 5.488C17.7644 6.58267 18.0007 7.75233 18.0007 8.997C18.0007 10.241 17.7647 11.411 17.2927 12.507C16.8201 13.6023 16.1787 14.5553 15.3687 15.366C14.5594 16.1767 13.6074 16.8183 12.5127 17.291C11.4181 17.7637 10.2484 18 9.00373 18Z" fill="#08AE05"/>
</svg>