<svg xmlns="http://www.w3.org/2000/svg" width="1383" height="177" viewBox="0 0 1383 177" fill="none">
  <path d="M1382.96 75.3328C1382.79 74.4829 1381.99 73.9478 1381.19 74.1367L1221.22 111.665V104.538H1201.56V112.445L991.623 42.4573V30.4958H971.967V42.9043L776.416 161.859V156.275H756.759V161.406L524.665 13.2207V0H505.008V10.8976L292.516 132.15V125.767H272.86V133.516L2.06704 14.3602C1.30895 14.0265 0.431479 14.4043 0.115111 15.2038C-0.201257 16.0033 0.156895 16.9288 0.914984 17.2625L272.866 136.929V146.498H292.522V135.733L505.008 14.4798V20.7313H524.665V16.9036L756.765 165.089V177.006H776.422V165.498L971.979 46.5558V51.2397H991.635V45.7688L1201.57 115.75V125.269H1221.22V114.894L1381.84 77.2152C1382.64 77.02 1383.14 76.1764 1382.96 75.3328Z" fill="white" fill-opacity="0.16"/>
</svg>