<svg width="25" height="19" viewBox="0 0 25 19" fill="none" xmlns="http://www.w3.org/2000/svg">
<path d="M3.16668 0.166504C1.87751 0.166504 0.833344 1.21067 0.833344 2.49984V16.4998C0.833344 17.789 1.87751 18.8332 3.16668 18.8332H21.8333C23.1225 18.8332 24.1667 17.789 24.1667 16.4998V2.49984C24.1667 1.21067 23.1225 0.166504 21.8333 0.166504H3.16668ZM15.2868 5.99984C16.0101 5.99984 16.8545 6.36214 16.8545 6.36214L16.4922 7.80908C16.4922 7.80908 15.8888 7.32601 15.2868 7.32601C14.4433 7.32601 14.2022 7.68895 14.2022 8.05062C14.2022 8.89412 16.613 9.01252 16.613 10.7007C16.6118 12.145 14.9249 13.1098 13.8399 12.9884C12.6347 12.9884 12.0329 12.6284 12.0329 12.6284L12.2744 11.1815C12.2744 11.1815 12.997 11.5438 13.9606 11.5438C14.9243 11.5438 15.0453 11.1803 15.0453 10.9399C15.0453 9.85494 12.6345 10.2172 12.6345 8.04834C12.6345 6.96334 13.4785 5.99984 15.2868 5.99984ZM7.69435 6.12061H9.38054L6.84897 12.87H5.042L3.71583 7.44678C3.71583 7.44678 5.16237 8.28971 6.00587 10.3384C6.00587 10.5799 6.12664 10.9422 6.12664 10.9422L7.69435 6.12061ZM19.3838 6.12061H21.1908L22.5169 12.87H21.07L20.8285 11.9061H18.6592L18.2992 12.87H16.6107L19.3838 6.12061ZM10.1029 6.23909H11.9098L10.8252 12.9884H9.13901L10.1029 6.23909ZM1.66733 6.24137H4.31967C5.04301 6.24137 5.28354 6.84294 5.28354 6.84294L5.8851 9.85531C5.16177 7.32481 1.66733 6.24137 1.66733 6.24137ZM19.9854 8.16911L19.0215 10.7007H20.4662L19.9854 8.16911Z" fill="#1A1A1A"/>
</svg>