<svg id="wave" style="transform:rotate(180deg); transition: 0.3s" viewBox="0 0 1440 240" version="1.1" xmlns="http://www.w3.org/2000/svg"><defs><linearGradient id="sw-gradient-0" x1="0" x2="0" y1="1" y2="0"><stop stop-color="rgba(236, 236, 236, 1)" offset="0%"></stop><stop stop-color="rgba(236, 236, 236, 1)" offset="100%"></stop></linearGradient></defs><path style="transform:translate(0, 0px); opacity:1" fill="url(#sw-gradient-0)" d="M0,216L60,200C120,184,240,152,360,128C480,104,600,88,720,88C840,88,960,104,1080,128C1200,152,1320,184,1440,188C1560,192,1680,168,1800,156C1920,144,2040,144,2160,152C2280,160,2400,176,2520,160C2640,144,2760,96,2880,88C3000,80,3120,112,3240,116C3360,120,3480,96,3600,76C3720,56,3840,40,3960,28C4080,16,4200,8,4320,40C4440,72,4560,144,4680,180C4800,216,4920,216,5040,204C5160,192,5280,168,5400,132C5520,96,5640,48,5760,36C5880,24,6000,48,6120,68C6240,88,6360,104,6480,120C6600,136,6720,152,6840,160C6960,168,7080,168,7200,164C7320,160,7440,152,7560,128C7680,104,7800,64,7920,72C8040,80,8160,136,8280,160C8400,184,8520,176,8580,172L8640,168L8640,240L8580,240C8520,240,8400,240,8280,240C8160,240,8040,240,7920,240C7800,240,7680,240,7560,240C7440,240,7320,240,7200,240C7080,240,6960,240,6840,240C6720,240,6600,240,6480,240C6360,240,6240,240,6120,240C6000,240,5880,240,5760,240C5640,240,5520,240,5400,240C5280,240,5160,240,5040,240C4920,240,4800,240,4680,240C4560,240,4440,240,4320,240C4200,240,4080,240,3960,240C3840,240,3720,240,3600,240C3480,240,3360,240,3240,240C3120,240,3000,240,2880,240C2760,240,2640,240,2520,240C2400,240,2280,240,2160,240C2040,240,1920,240,1800,240C1680,240,1560,240,1440,240C1320,240,1200,240,1080,240C960,240,840,240,720,240C600,240,480,240,360,240C240,240,120,240,60,240L0,240Z"></path></svg>